<svg width="25" height="24" viewBox="0 0 25 24" fill="none" xmlns="http://www.w3.org/2000/svg">
<g clip-path="url(#clip0_1_201)">
<path d="M12.6667 14.4609C14.0258 14.4609 15.1276 13.3591 15.1276 12C15.1276 10.6409 14.0258 9.53906 12.6667 9.53906C11.3075 9.53906 10.2057 10.6409 10.2057 12C10.2057 13.3591 11.3075 14.4609 12.6667 14.4609Z" fill="white"/>
<path d="M12.6667 0.28125C6.19461 0.28125 0.947937 5.52792 0.947937 12C0.947937 18.4721 6.19461 23.7188 12.6667 23.7188C19.1388 23.7188 24.3854 18.4721 24.3854 12C24.3854 5.52792 19.1388 0.28125 12.6667 0.28125ZM19.9069 14.9784C19.8507 16.0926 19.5376 17.1912 18.7257 17.9945C17.9059 18.8055 16.802 19.1076 15.6771 19.1633H9.65628C8.53128 19.1076 7.42756 18.8056 6.60777 17.9945C5.7958 17.1912 5.48277 16.0926 5.42652 14.9784V9.02156C5.48277 7.90744 5.79584 6.80878 6.60777 6.00544C7.42756 5.1945 8.53142 4.89234 9.65628 4.8367H15.6771C16.8021 4.89234 17.9058 5.19436 18.7256 6.00544C19.5376 6.80878 19.8506 7.90744 19.9069 9.02156L19.9069 14.9784Z" fill="white"/>
<path d="M15.6011 6.19398C14.1345 6.15376 11.1992 6.15376 9.73268 6.19398C8.96951 6.21494 8.10434 6.40492 7.56059 6.9857C6.99556 7.5894 6.78204 8.31878 6.76039 9.13473C6.72232 10.5669 6.76039 14.8653 6.76039 14.8653C6.78518 15.6812 6.99556 16.4106 7.56059 17.0143C8.10434 17.5953 8.96951 17.7851 9.73268 17.806C11.1992 17.8463 14.1345 17.8463 15.6011 17.806C16.3642 17.7851 17.2294 17.5951 17.7732 17.0143C18.3382 16.4106 18.5517 15.6812 18.5734 14.8653V9.13473C18.5517 8.31878 18.3382 7.5894 17.7732 6.9857C17.2292 6.40473 16.364 6.21494 15.6011 6.19398ZM12.6667 15.8145C11.9123 15.8145 11.1748 15.5908 10.5475 15.1716C9.9202 14.7525 9.43129 14.1567 9.14259 13.4597C8.85388 12.7627 8.77834 11.9958 8.92552 11.2559C9.07271 10.5159 9.436 9.83625 9.96946 9.30279C10.5029 8.76933 11.1826 8.40604 11.9225 8.25885C12.6625 8.11167 13.4294 8.18721 14.1264 8.47592C14.8234 8.76463 15.4191 9.25353 15.8383 9.88082C16.2574 10.5081 16.4811 11.2456 16.4811 12C16.4811 13.0117 16.0793 13.9819 15.3639 14.6972C14.6486 15.4126 13.6783 15.8145 12.6667 15.8145ZM16.4974 8.97292C16.3465 8.97288 16.199 8.92811 16.0736 8.84426C15.9481 8.76041 15.8504 8.64125 15.7927 8.50185C15.735 8.36244 15.7199 8.20906 15.7493 8.06108C15.7788 7.91311 15.8515 7.77719 15.9582 7.67052C16.0649 7.56384 16.2008 7.4912 16.3488 7.46178C16.4968 7.43236 16.6501 7.44748 16.7895 7.50523C16.9289 7.56297 17.0481 7.66076 17.1319 7.78621C17.2157 7.91166 17.2604 8.05915 17.2604 8.21003C17.2604 8.31023 17.2407 8.40945 17.2023 8.50202C17.164 8.59459 17.1078 8.6787 17.0369 8.74954C16.9661 8.82038 16.8819 8.87657 16.7894 8.9149C16.6968 8.95323 16.5976 8.97294 16.4974 8.97292Z" fill="white"/>
</g>
<defs>
<clipPath id="clip0_1_201">
<rect width="24" height="24" fill="white" transform="translate(0.666687)"/>
</clipPath>
</defs>
</svg>
