<svg width="24" height="24" viewBox="0 0 24 24" fill="none" xmlns="http://www.w3.org/2000/svg">
<path d="M20.1601 8.06408H14.6881C15.0721 7.39208 15.2641 6.62408 15.3601 5.76008C15.7441 3.55208 14.0161 1.63208 11.8081 1.63208H11.2321C10.8481 1.63208 10.4641 2.01608 10.4641 2.40008V4.70408C10.4641 6.52808 9.50407 8.25608 7.87207 9.21608V21.2161L8.64007 21.7921C9.21607 22.1761 9.88807 22.4641 10.5601 22.4641H19.0081C20.6401 22.4641 21.9841 21.3121 22.1761 19.7761L23.4241 11.8081C23.8081 9.88808 22.4641 8.06408 20.1601 8.06408Z" fill="white"/>
<path d="M1.91998 21.7921H4.41598C5.18398 21.7921 5.85598 21.1201 5.85598 20.3521V10.5601C5.85598 9.79212 5.18398 9.12012 4.41598 9.12012H1.91998C1.15198 9.12012 0.47998 9.79212 0.47998 10.5601V20.3521C0.47998 21.1201 1.15198 21.7921 1.91998 21.7921Z" fill="white"/>
</svg>
