<svg width="25" height="24" viewBox="0 0 25 24" fill="none" xmlns="http://www.w3.org/2000/svg">
<g clip-path="url(#clip0_1_198)">
<path d="M12.3333 0C5.70634 0 0.333344 5.373 0.333344 12C0.333344 18.627 5.70634 24 12.3333 24C18.9603 24 24.3333 18.627 24.3333 12C24.3333 5.373 18.9603 0 12.3333 0ZM18.3333 18.75C11.3028 18.75 5.58334 13.0305 5.58334 6C5.58334 5.586 5.91934 5.25 6.33334 5.25H9.10234C9.51634 5.25 9.85234 5.586 9.85234 6C9.85234 7.296 10.1343 8.5305 10.6908 9.6675C10.7793 9.8475 10.7913 10.053 10.7253 10.242C10.6608 10.431 10.5228 10.5855 10.3428 10.6725L9.22384 11.2125C10.1553 12.834 11.4993 14.1795 13.1193 15.108L13.6593 13.9905C13.7463 13.8105 13.9008 13.674 14.0898 13.608C14.2788 13.5435 14.4858 13.5555 14.6643 13.6425C15.8043 14.199 17.0373 14.481 18.3318 14.481C18.7458 14.481 19.0818 14.817 19.0818 15.231V18H19.0833C19.0833 18.414 18.7473 18.75 18.3333 18.75Z" fill="white"/>
</g>
<defs>
<clipPath id="clip0_1_198">
<rect width="24" height="24" fill="white" transform="translate(0.333344)"/>
</clipPath>
</defs>
</svg>
