<svg width="16" height="20" viewBox="0 0 16 20" fill="none" xmlns="http://www.w3.org/2000/svg">
<path d="M2 20C1.45 20 0.979333 19.8043 0.588 19.413C0.196 19.021 0 18.55 0 18V2C0 1.45 0.196 0.979 0.588 0.587C0.979333 0.195667 1.45 0 2 0H14C14.55 0 15.021 0.195667 15.413 0.587C15.8043 0.979 16 1.45 16 2V18C16 18.55 15.8043 19.021 15.413 19.413C15.021 19.8043 14.55 20 14 20H2ZM11.5 11.5C11.9167 11.5 12.2707 11.354 12.562 11.062C12.854 10.7707 13 10.4167 13 10C13 9.58333 12.854 9.22933 12.562 8.938C12.2707 8.646 11.9167 8.5 11.5 8.5C11.0833 8.5 10.7293 8.646 10.438 8.938C10.146 9.22933 10 9.58333 10 10C10 10.4167 10.146 10.7707 10.438 11.062C10.7293 11.354 11.0833 11.5 11.5 11.5Z" fill="white"/>
</svg>
