<svg width="24" height="24" viewBox="0 0 24 24" fill="none" xmlns="http://www.w3.org/2000/svg">
<path d="M20.16 8.06396H14.688C15.072 7.39196 15.264 6.62396 15.36 5.75996C15.744 3.55196 14.016 1.63196 11.808 1.63196H11.232C10.848 1.63196 10.464 2.01596 10.464 2.39996V4.70396C10.464 6.52796 9.50401 8.25596 7.87201 9.21596V21.216L8.64001 21.792C9.21601 22.176 9.88801 22.464 10.56 22.464H19.008C20.64 22.464 21.984 21.312 22.176 19.776L23.424 11.808C23.808 9.88796 22.464 8.06396 20.16 8.06396Z" fill="#8EB547"/>
<path d="M1.91998 21.792H4.41598C5.18398 21.792 5.85598 21.12 5.85598 20.352V10.56C5.85598 9.792 5.18398 9.12 4.41598 9.12H1.91998C1.15198 9.12 0.47998 9.792 0.47998 10.56V20.352C0.47998 21.12 1.15198 21.792 1.91998 21.792Z" fill="#8EB547"/>
</svg>
