<svg width="24" height="24" viewBox="0 0 24 24" fill="none" xmlns="http://www.w3.org/2000/svg">
<g clip-path="url(#clip0_1_164)">
<path d="M5.79297 13.2294L5.79302 13.2296C5.80787 13.2146 5.80689 13.2155 5.79297 13.2294Z" fill="#8EB547"/>
<path d="M23.468 9.91215L22.2745 9.62518C22.015 8.49235 21.5681 7.41582 20.9433 6.41486L21.5481 5.39945C21.713 5.12279 21.6683 4.76987 21.441 4.54262L19.4589 2.56051C19.2317 2.33396 18.8795 2.28864 18.6021 2.4534L17.5867 3.05823C16.5857 2.43348 15.5092 1.98653 14.3764 1.72703L14.0894 0.53359C14.0111 0.221215 13.7303 0.00146484 13.4076 0.00146484H10.5955C10.2728 0.00146484 9.99205 0.221168 9.91377 0.53359L9.6268 1.72703C8.49397 1.98653 7.41744 2.43348 6.41648 3.05823L5.40107 2.4534C5.12441 2.28859 4.77149 2.33326 4.54424 2.56051L2.56204 4.54257C2.33479 4.76982 2.29016 5.1227 2.45493 5.3994L3.05976 6.41481C2.43501 7.41578 1.98805 8.49231 1.72855 9.62514L0.535116 9.9121C0.222741 9.99039 0.00299072 10.2712 0.00299072 10.5939V13.406C0.00299072 13.7287 0.222694 14.0102 0.535772 14.0877L1.72921 14.3747C1.90223 15.1254 2.16262 15.8465 2.49702 16.5382C3.01335 16.0198 5.60657 13.4154 5.79294 13.2293C5.78376 13.182 5.6833 12.2814 5.68063 12.106C5.62082 8.52353 8.5064 5.67325 12.0043 5.67325C15.5261 5.67325 18.3344 8.51303 18.3211 12.0219C18.306 15.2669 15.8841 18.0294 12.5014 18.2821C12.355 18.2933 11.6934 18.3909 10.7713 18.2091L7.47168 21.5087C8.16074 21.8411 8.87919 22.0998 9.62676 22.2722L9.91372 23.4663C9.99201 23.7787 10.2728 23.9984 10.5955 23.9984H13.4076C13.7303 23.9984 14.0111 23.7787 14.0893 23.4663L14.3763 22.2729C15.5091 22.0134 16.5857 21.5664 17.5866 20.9417L18.6021 21.5465C18.8773 21.7113 19.2309 21.666 19.4589 21.4394L21.441 19.4573C21.6682 19.23 21.7129 18.8771 21.5481 18.6004L20.9433 17.585C21.5687 16.5841 22.015 15.5075 22.2745 14.374L23.4672 14.0877C23.7803 14.0102 24 13.7287 24 13.406V10.5939C24 10.2712 23.7803 9.99039 23.468 9.91215Z" fill="#8EB547"/>
<path d="M16.7586 10.7147C16.6969 10.4727 16.51 10.2823 16.269 10.2163C16.0281 10.1502 15.7707 10.219 15.5941 10.3957L13.9898 12C13.4414 12.5484 12.5499 12.5484 12.0015 12C11.4536 11.4522 11.4536 10.5597 12.0015 10.0118L13.6065 8.40675C13.7831 8.23013 13.8513 7.97231 13.7853 7.73152C13.7192 7.49072 13.529 7.30355 13.287 7.24205C10.3204 6.48816 7.65082 8.42049 7.16121 11.0889C7.00399 11.9678 7.07402 12.8431 7.36164 13.6491C6.96161 14.0492 0.782831 20.2279 0.616753 20.394C-0.207825 21.2186 -0.207825 22.5601 0.629784 23.3978C1.45957 24.1843 2.73039 24.2174 3.60738 23.3847L10.3523 16.6398C11.4325 17.0253 12.6371 17.0175 13.816 16.6015C15.9401 15.852 17.4267 13.3365 16.7586 10.7147Z" fill="#8EB547"/>
</g>
<defs>
<clipPath id="clip0_1_164">
<rect width="24" height="24" fill="white"/>
</clipPath>
</defs>
</svg>
