<svg width="157" height="19" viewBox="0 0 157 19" fill="none" xmlns="http://www.w3.org/2000/svg">
<path d="M0.58424 18V0.545454H6.97629C8.21492 0.545454 9.24049 0.75 10.053 1.15909C10.8655 1.5625 11.4734 2.1108 11.8769 2.80398C12.2803 3.49148 12.482 4.26705 12.482 5.13068C12.482 5.85795 12.3484 6.47159 12.0814 6.97159C11.8144 7.46591 11.4564 7.86364 11.0075 8.16477C10.5644 8.46023 10.0757 8.67614 9.54163 8.8125V8.98295C10.1212 9.01136 10.6865 9.19886 11.2376 9.54545C11.7945 9.88636 12.2547 10.3722 12.6183 11.0028C12.982 11.6335 13.1638 12.4006 13.1638 13.304C13.1638 14.196 12.9536 14.9972 12.5331 15.7074C12.1183 16.4119 11.4763 16.9716 10.607 17.3864C9.73765 17.7955 8.62685 18 7.27458 18H0.58424ZM3.21776 15.7415H7.0189C8.28026 15.7415 9.18367 15.4972 9.72913 15.0085C10.2746 14.5199 10.5473 13.9091 10.5473 13.1761C10.5473 12.625 10.4081 12.1193 10.1297 11.6591C9.85129 11.1989 9.45356 10.8324 8.93651 10.5597C8.42515 10.2869 7.81719 10.1506 7.11265 10.1506H3.21776V15.7415ZM3.21776 8.09659H6.74617C7.33708 8.09659 7.86833 7.98295 8.33992 7.75568C8.81719 7.52841 9.19504 7.21023 9.47344 6.80114C9.75754 6.38636 9.89958 5.89773 9.89958 5.33523C9.89958 4.61364 9.64674 4.00852 9.14106 3.51989C8.63538 3.03125 7.85981 2.78693 6.81435 2.78693H3.21776V8.09659ZM19.8925 18.2898C19.0629 18.2898 18.3129 18.1364 17.6425 17.8295C16.972 17.517 16.4408 17.0653 16.0487 16.4744C15.6624 15.8835 15.4692 15.1591 15.4692 14.3011C15.4692 13.5625 15.6112 12.9545 15.8953 12.4773C16.1794 12 16.5629 11.6222 17.0459 11.3438C17.5288 11.0653 18.0686 10.8551 18.6652 10.7131C19.2618 10.571 19.8698 10.4631 20.4891 10.3892C21.2732 10.2983 21.9095 10.2244 22.3982 10.1676C22.8868 10.1051 23.2419 10.0057 23.4635 9.86932C23.6851 9.73295 23.7959 9.51136 23.7959 9.20455V9.14489C23.7959 8.40057 23.5857 7.82386 23.1652 7.41477C22.7504 7.00568 22.1311 6.80114 21.3073 6.80114C20.4493 6.80114 19.7732 6.99148 19.2788 7.37216C18.7902 7.74716 18.4521 8.16477 18.2646 8.625L15.8698 8.07955C16.1538 7.28409 16.5686 6.64205 17.1141 6.15341C17.6652 5.65909 18.2987 5.30114 19.0146 5.07954C19.7305 4.85227 20.4834 4.73864 21.2732 4.73864C21.7959 4.73864 22.3499 4.80114 22.9351 4.92614C23.526 5.04545 24.0771 5.26705 24.5885 5.59091C25.1055 5.91477 25.5288 6.37784 25.8584 6.98011C26.1879 7.5767 26.3527 8.35227 26.3527 9.30682V18H23.8641V16.2102H23.7618C23.597 16.5398 23.3499 16.8636 23.0203 17.1818C22.6908 17.5 22.2675 17.7642 21.7504 17.9744C21.2334 18.1847 20.6141 18.2898 19.8925 18.2898ZM20.4465 16.2443C21.151 16.2443 21.7533 16.1051 22.2533 15.8267C22.759 15.5483 23.1425 15.1847 23.4038 14.7358C23.6709 14.2812 23.8044 13.7955 23.8044 13.2784V11.5909C23.7135 11.6818 23.5374 11.767 23.276 11.8466C23.0203 11.9205 22.7277 11.9858 22.3982 12.0426C22.0686 12.0937 21.7476 12.142 21.4351 12.1875C21.1226 12.2273 20.8612 12.2614 20.651 12.2898C20.1567 12.3523 19.705 12.4574 19.2959 12.6051C18.8925 12.7528 18.5686 12.9659 18.3243 13.2443C18.0857 13.517 17.9663 13.8807 17.9663 14.3352C17.9663 14.9659 18.1993 15.4432 18.6652 15.767C19.1311 16.0852 19.7249 16.2443 20.4465 16.2443ZM29.7469 4.90909H32.244V15.7926H36.7696V4.90909H39.2668V15.7926H43.7923V4.90909H46.2895V18H29.7469V4.90909ZM53.5019 18.2898C52.6723 18.2898 51.9223 18.1364 51.2519 17.8295C50.5814 17.517 50.0501 17.0653 49.6581 16.4744C49.2717 15.8835 49.0786 15.1591 49.0786 14.3011C49.0786 13.5625 49.2206 12.9545 49.5047 12.4773C49.7888 12 50.1723 11.6222 50.6553 11.3438C51.1382 11.0653 51.678 10.8551 52.2746 10.7131C52.8712 10.571 53.4791 10.4631 54.0984 10.3892C54.8825 10.2983 55.5189 10.2244 56.0075 10.1676C56.4962 10.1051 56.8513 10.0057 57.0729 9.86932C57.2945 9.73295 57.4053 9.51136 57.4053 9.20455V9.14489C57.4053 8.40057 57.195 7.82386 56.7746 7.41477C56.3598 7.00568 55.7405 6.80114 54.9166 6.80114C54.0587 6.80114 53.3825 6.99148 52.8882 7.37216C52.3996 7.74716 52.0615 8.16477 51.874 8.625L49.4791 8.07955C49.7632 7.28409 50.178 6.64205 50.7234 6.15341C51.2746 5.65909 51.9081 5.30114 52.624 5.07954C53.3399 4.85227 54.0928 4.73864 54.8825 4.73864C55.4053 4.73864 55.9592 4.80114 56.5445 4.92614C57.1354 5.04545 57.6865 5.26705 58.1979 5.59091C58.7149 5.91477 59.1382 6.37784 59.4678 6.98011C59.7973 7.5767 59.9621 8.35227 59.9621 9.30682V18H57.4734V16.2102H57.3712C57.2064 16.5398 56.9592 16.8636 56.6297 17.1818C56.3001 17.5 55.8769 17.7642 55.3598 17.9744C54.8428 18.1847 54.2234 18.2898 53.5019 18.2898ZM54.0558 16.2443C54.7604 16.2443 55.3626 16.1051 55.8626 15.8267C56.3683 15.5483 56.7519 15.1847 57.0132 14.7358C57.2803 14.2812 57.4138 13.7955 57.4138 13.2784V11.5909C57.3229 11.6818 57.1467 11.767 56.8854 11.8466C56.6297 11.9205 56.3371 11.9858 56.0075 12.0426C55.678 12.0937 55.357 12.142 55.0445 12.1875C54.732 12.2273 54.4706 12.2614 54.2604 12.2898C53.7661 12.3523 53.3144 12.4574 52.9053 12.6051C52.5019 12.7528 52.178 12.9659 51.9337 13.2443C51.695 13.517 51.5757 13.8807 51.5757 14.3352C51.5757 14.9659 51.8087 15.4432 52.2746 15.767C52.7405 16.0852 53.3342 16.2443 54.0558 16.2443ZM83.5573 0.545454V18H80.9323V2.79545H72.7163V18H70.0913V0.545454H83.5573ZM92.8939 18.2642C91.6666 18.2642 90.5956 17.983 89.6808 17.4205C88.7661 16.858 88.0558 16.071 87.5501 15.0597C87.0445 14.0483 86.7916 12.8665 86.7916 11.5142C86.7916 10.1562 87.0445 8.96875 87.5501 7.9517C88.0558 6.93466 88.7661 6.14489 89.6808 5.58239C90.5956 5.01989 91.6666 4.73864 92.8939 4.73864C94.1212 4.73864 95.1922 5.01989 96.107 5.58239C97.0217 6.14489 97.732 6.93466 98.2376 7.9517C98.7433 8.96875 98.9962 10.1562 98.9962 11.5142C98.9962 12.8665 98.7433 14.0483 98.2376 15.0597C97.732 16.071 97.0217 16.858 96.107 17.4205C95.1922 17.983 94.1212 18.2642 92.8939 18.2642ZM92.9024 16.125C93.6979 16.125 94.357 15.9148 94.8797 15.4943C95.4024 15.0739 95.7888 14.5142 96.0388 13.8153C96.2945 13.1165 96.4223 12.3466 96.4223 11.5057C96.4223 10.6705 96.2945 9.90341 96.0388 9.20455C95.7888 8.5 95.4024 7.93466 94.8797 7.50852C94.357 7.08239 93.6979 6.86932 92.9024 6.86932C92.1013 6.86932 91.4365 7.08239 90.9081 7.50852C90.3854 7.93466 89.9962 8.5 89.7405 9.20455C89.4905 9.90341 89.3655 10.6705 89.3655 11.5057C89.3655 12.3466 89.4905 13.1165 89.7405 13.8153C89.9962 14.5142 90.3854 15.0739 90.9081 15.4943C91.4365 15.9148 92.1013 16.125 92.9024 16.125ZM101.841 4.90909H104.338V15.7926H108.863V4.90909H111.361V15.7926H115.886V4.90909H118.383V18H101.841V4.90909ZM120.162 7.10795V4.90909H131.208V7.10795H126.938V18H124.449V7.10795H120.162ZM137.103 18.2898C136.274 18.2898 135.524 18.1364 134.853 17.8295C134.183 17.517 133.652 17.0653 133.26 16.4744C132.873 15.8835 132.68 15.1591 132.68 14.3011C132.68 13.5625 132.822 12.9545 133.106 12.4773C133.39 12 133.774 11.6222 134.257 11.3438C134.74 11.0653 135.28 10.8551 135.876 10.7131C136.473 10.571 137.081 10.4631 137.7 10.3892C138.484 10.2983 139.12 10.2244 139.609 10.1676C140.098 10.1051 140.453 10.0057 140.674 9.86932C140.896 9.73295 141.007 9.51136 141.007 9.20455V9.14489C141.007 8.40057 140.797 7.82386 140.376 7.41477C139.961 7.00568 139.342 6.80114 138.518 6.80114C137.66 6.80114 136.984 6.99148 136.49 7.37216C136.001 7.74716 135.663 8.16477 135.476 8.625L133.081 8.07955C133.365 7.28409 133.78 6.64205 134.325 6.15341C134.876 5.65909 135.51 5.30114 136.226 5.07954C136.941 4.85227 137.694 4.73864 138.484 4.73864C139.007 4.73864 139.561 4.80114 140.146 4.92614C140.737 5.04545 141.288 5.26705 141.799 5.59091C142.316 5.91477 142.74 6.37784 143.069 6.98011C143.399 7.5767 143.564 8.35227 143.564 9.30682V18H141.075V16.2102H140.973C140.808 16.5398 140.561 16.8636 140.231 17.1818C139.902 17.5 139.478 17.7642 138.961 17.9744C138.444 18.1847 137.825 18.2898 137.103 18.2898ZM137.657 16.2443C138.362 16.2443 138.964 16.1051 139.464 15.8267C139.97 15.5483 140.353 15.1847 140.615 14.7358C140.882 14.2812 141.015 13.7955 141.015 13.2784V11.5909C140.924 11.6818 140.748 11.767 140.487 11.8466C140.231 11.9205 139.939 11.9858 139.609 12.0426C139.28 12.0937 138.959 12.142 138.646 12.1875C138.334 12.2273 138.072 12.2614 137.862 12.2898C137.368 12.3523 136.916 12.4574 136.507 12.6051C136.103 12.7528 135.78 12.9659 135.535 13.2443C135.297 13.517 135.177 13.8807 135.177 14.3352C135.177 14.9659 135.41 15.4432 135.876 15.767C136.342 16.0852 136.936 16.2443 137.657 16.2443Z" fill="white"/>
<path d="M150.58 10.3636L150.742 6.76705L147.708 8.71875L146.779 7.09943L150 5.45454L146.779 3.80966L147.708 2.19034L150.742 4.14204L150.58 0.545454H152.429L152.267 4.14204L155.302 2.19034L156.231 3.80966L153.009 5.45454L156.231 7.09943L155.302 8.71875L152.267 6.76705L152.429 10.3636H150.58Z" fill="#FF9300"/>
</svg>
