<svg width="122" height="19" viewBox="0 0 122 19" fill="none" xmlns="http://www.w3.org/2000/svg">
<path d="M0.917614 18V0.545454H7.30966C8.5483 0.545454 9.57386 0.75 10.3864 1.15909C11.1989 1.5625 11.8068 2.1108 12.2102 2.80398C12.6136 3.49148 12.8153 4.26705 12.8153 5.13068C12.8153 5.85795 12.6818 6.47159 12.4148 6.97159C12.1477 7.46591 11.7898 7.86364 11.3409 8.16477C10.8977 8.46023 10.4091 8.67614 9.875 8.8125V8.98295C10.4545 9.01136 11.0199 9.19886 11.571 9.54545C12.1278 9.88636 12.5881 10.3722 12.9517 11.0028C13.3153 11.6335 13.4972 12.4006 13.4972 13.304C13.4972 14.196 13.2869 14.9972 12.8665 15.7074C12.4517 16.4119 11.8097 16.9716 10.9403 17.3864C10.071 17.7955 8.96023 18 7.60795 18H0.917614ZM3.55114 15.7415H7.35227C8.61364 15.7415 9.51705 15.4972 10.0625 15.0085C10.608 14.5199 10.8807 13.9091 10.8807 13.1761C10.8807 12.625 10.7415 12.1193 10.4631 11.6591C10.1847 11.1989 9.78693 10.8324 9.26989 10.5597C8.75852 10.2869 8.15057 10.1506 7.44602 10.1506H3.55114V15.7415ZM3.55114 8.09659H7.07955C7.67045 8.09659 8.2017 7.98295 8.6733 7.75568C9.15057 7.52841 9.52841 7.21023 9.80682 6.80114C10.0909 6.38636 10.233 5.89773 10.233 5.33523C10.233 4.61364 9.98011 4.00852 9.47443 3.51989C8.96875 3.03125 8.19318 2.78693 7.14773 2.78693H3.55114V8.09659ZM20.2259 18.2898C19.3963 18.2898 18.6463 18.1364 17.9759 17.8295C17.3054 17.517 16.7741 17.0653 16.3821 16.4744C15.9957 15.8835 15.8026 15.1591 15.8026 14.3011C15.8026 13.5625 15.9446 12.9545 16.2287 12.4773C16.5128 12 16.8963 11.6222 17.3793 11.3438C17.8622 11.0653 18.402 10.8551 18.9986 10.7131C19.5952 10.571 20.2031 10.4631 20.8224 10.3892C21.6065 10.2983 22.2429 10.2244 22.7315 10.1676C23.2202 10.1051 23.5753 10.0057 23.7969 9.86932C24.0185 9.73295 24.1293 9.51136 24.1293 9.20455V9.14489C24.1293 8.40057 23.919 7.82386 23.4986 7.41477C23.0838 7.00568 22.4645 6.80114 21.6406 6.80114C20.7827 6.80114 20.1065 6.99148 19.6122 7.37216C19.1236 7.74716 18.7855 8.16477 18.598 8.625L16.2031 8.07955C16.4872 7.28409 16.902 6.64205 17.4474 6.15341C17.9986 5.65909 18.6321 5.30114 19.348 5.07954C20.0639 4.85227 20.8168 4.73864 21.6065 4.73864C22.1293 4.73864 22.6832 4.80114 23.2685 4.92614C23.8594 5.04545 24.4105 5.26705 24.9219 5.59091C25.4389 5.91477 25.8622 6.37784 26.1918 6.98011C26.5213 7.5767 26.6861 8.35227 26.6861 9.30682V18H24.1974V16.2102H24.0952C23.9304 16.5398 23.6832 16.8636 23.3537 17.1818C23.0241 17.5 22.6009 17.7642 22.0838 17.9744C21.5668 18.1847 20.9474 18.2898 20.2259 18.2898ZM20.7798 16.2443C21.4844 16.2443 22.0866 16.1051 22.5866 15.8267C23.0923 15.5483 23.4759 15.1847 23.7372 14.7358C24.0043 14.2812 24.1378 13.7955 24.1378 13.2784V11.5909C24.0469 11.6818 23.8707 11.767 23.6094 11.8466C23.3537 11.9205 23.0611 11.9858 22.7315 12.0426C22.402 12.0937 22.081 12.142 21.7685 12.1875C21.456 12.2273 21.1946 12.2614 20.9844 12.2898C20.4901 12.3523 20.0384 12.4574 19.6293 12.6051C19.2259 12.7528 18.902 12.9659 18.6577 13.2443C18.419 13.517 18.2997 13.8807 18.2997 14.3352C18.2997 14.9659 18.5327 15.4432 18.9986 15.767C19.4645 16.0852 20.0582 16.2443 20.7798 16.2443ZM30.0803 4.90909H32.5774V15.7926H37.103V4.90909H39.6001V15.7926H44.1257V4.90909H46.6229V18H30.0803V4.90909ZM55.6676 18.2642C54.3778 18.2642 53.267 17.9886 52.3352 17.4375C51.4091 16.8807 50.6932 16.0994 50.1875 15.0938C49.6875 14.0824 49.4375 12.8977 49.4375 11.5398C49.4375 10.1989 49.6875 9.01705 50.1875 7.99432C50.6932 6.97159 51.3977 6.1733 52.3011 5.59943C53.2102 5.02557 54.2727 4.73864 55.4886 4.73864C56.2273 4.73864 56.9432 4.8608 57.6364 5.10511C58.3295 5.34943 58.9517 5.73295 59.5028 6.25568C60.054 6.77841 60.4886 7.45739 60.8068 8.29261C61.125 9.12216 61.2841 10.1307 61.2841 11.3182V12.2216H50.8778V10.3125H58.7869C58.7869 9.64205 58.6506 9.0483 58.3778 8.53125C58.1051 8.00852 57.7216 7.59659 57.2273 7.29545C56.7386 6.99432 56.1648 6.84375 55.5057 6.84375C54.7898 6.84375 54.1648 7.01989 53.6307 7.37216C53.1023 7.71875 52.6932 8.1733 52.4034 8.7358C52.1193 9.29261 51.9773 9.89773 51.9773 10.5511V12.0426C51.9773 12.9176 52.1307 13.6619 52.4375 14.2756C52.75 14.8892 53.1847 15.358 53.7415 15.6818C54.2983 16 54.9489 16.1591 55.6932 16.1591C56.1761 16.1591 56.6165 16.0909 57.0142 15.9545C57.4119 15.8125 57.7557 15.6023 58.0455 15.3239C58.3352 15.0455 58.5568 14.7017 58.7102 14.2926L61.1222 14.7273C60.929 15.4375 60.5824 16.0597 60.0824 16.5938C59.5881 17.1222 58.9659 17.5341 58.2159 17.8295C57.4716 18.1193 56.6222 18.2642 55.6676 18.2642ZM73.3011 0.545454V18H70.6676V0.545454H73.3011ZM84.2784 14.8466L88.5057 4.90909H90.7045L85.2244 18H83.3324L77.9631 4.90909H80.1364L84.2784 14.8466ZM79.429 4.90909V18H76.9318V4.90909H79.429ZM89.196 18V4.90909H91.6761V18H89.196ZM97.2628 0.545454V2.18182C97.2628 2.66477 97.1719 3.1733 96.9901 3.70739C96.8139 4.2358 96.5639 4.74432 96.2401 5.23295C95.9162 5.72159 95.5355 6.14204 95.098 6.49432L93.8366 5.59091C94.1719 5.10227 94.4616 4.58239 94.706 4.03125C94.956 3.48011 95.081 2.87216 95.081 2.20739V0.545454H97.2628ZM106.84 18V7.08239H103.704C102.96 7.08239 102.38 7.25568 101.965 7.60227C101.55 7.94886 101.343 8.40341 101.343 8.96591C101.343 9.52273 101.533 9.97159 101.914 10.3125C102.3 10.6477 102.84 10.8153 103.533 10.8153H107.582V12.8778H103.533C102.567 12.8778 101.732 12.7187 101.028 12.4006C100.329 12.0767 99.7891 11.6193 99.4084 11.0284C99.0334 10.4375 98.8459 9.73864 98.8459 8.93182C98.8459 8.10795 99.0391 7.39773 99.4254 6.80114C99.8175 6.19886 100.377 5.73295 101.104 5.40341C101.837 5.07386 102.704 4.90909 103.704 4.90909H109.235V18H106.84ZM98.2493 18L101.94 11.3864H104.548L100.857 18H98.2493Z" fill="white"/>
<path d="M116.249 10.3636L116.411 6.76705L113.377 8.71875L112.448 7.09943L115.67 5.45454L112.448 3.80966L113.377 2.19034L116.411 4.14204L116.249 0.545454H118.099L117.937 4.14204L120.971 2.19034L121.9 3.80966L118.678 5.45454L121.9 7.09943L120.971 8.71875L117.937 6.76705L118.099 10.3636H116.249Z" fill="#FF9300"/>
</svg>
