<svg width="155" height="19" viewBox="0 0 155 19" fill="none" xmlns="http://www.w3.org/2000/svg">
<path d="M0.250866 18V0.545454H6.64291C7.88155 0.545454 8.90712 0.75 9.71962 1.15909C10.5321 1.5625 11.1401 2.1108 11.5435 2.80398C11.9469 3.49148 12.1486 4.26705 12.1486 5.13068C12.1486 5.85795 12.0151 6.47159 11.748 6.97159C11.481 7.46591 11.123 7.86364 10.6742 8.16477C10.231 8.46023 9.74234 8.67614 9.20825 8.8125V8.98295C9.7878 9.01136 10.3531 9.19886 10.9043 9.54545C11.4611 9.88636 11.9213 10.3722 12.285 11.0028C12.6486 11.6335 12.8304 12.4006 12.8304 13.304C12.8304 14.196 12.6202 14.9972 12.1997 15.7074C11.785 16.4119 11.1429 16.9716 10.2736 17.3864C9.40428 17.7955 8.29348 18 6.94121 18H0.250866ZM2.88439 15.7415H6.68552C7.94689 15.7415 8.8503 15.4972 9.39575 15.0085C9.94121 14.5199 10.2139 13.9091 10.2139 13.1761C10.2139 12.625 10.0747 12.1193 9.79632 11.6591C9.51791 11.1989 9.12018 10.8324 8.60314 10.5597C8.09177 10.2869 7.48382 10.1506 6.77927 10.1506H2.88439V15.7415ZM2.88439 8.09659H6.4128C7.00371 8.09659 7.53496 7.98295 8.00655 7.75568C8.48382 7.52841 8.86166 7.21023 9.14007 6.80114C9.42416 6.38636 9.56621 5.89773 9.56621 5.33523C9.56621 4.61364 9.31337 4.00852 8.80768 3.51989C8.302 3.03125 7.52643 2.78693 6.48098 2.78693H2.88439V8.09659ZM19.5591 18.2898C18.7296 18.2898 17.9796 18.1364 17.3091 17.8295C16.6386 17.517 16.1074 17.0653 15.7154 16.4744C15.329 15.8835 15.1358 15.1591 15.1358 14.3011C15.1358 13.5625 15.2779 12.9545 15.5619 12.4773C15.846 12 16.2296 11.6222 16.7125 11.3438C17.1955 11.0653 17.7352 10.8551 18.3318 10.7131C18.9284 10.571 19.5364 10.4631 20.1557 10.3892C20.9398 10.2983 21.5761 10.2244 22.0648 10.1676C22.5534 10.1051 22.9085 10.0057 23.1301 9.86932C23.3517 9.73295 23.4625 9.51136 23.4625 9.20455V9.14489C23.4625 8.40057 23.2523 7.82386 22.8318 7.41477C22.4171 7.00568 21.7977 6.80114 20.9739 6.80114C20.1159 6.80114 19.4398 6.99148 18.9455 7.37216C18.4568 7.74716 18.1188 8.16477 17.9313 8.625L15.5364 8.07955C15.8205 7.28409 16.2352 6.64205 16.7807 6.15341C17.3318 5.65909 17.9654 5.30114 18.6813 5.07954C19.3972 4.85227 20.15 4.73864 20.9398 4.73864C21.4625 4.73864 22.0165 4.80114 22.6017 4.92614C23.1926 5.04545 23.7438 5.26705 24.2551 5.59091C24.7722 5.91477 25.1955 6.37784 25.525 6.98011C25.8546 7.5767 26.0193 8.35227 26.0193 9.30682V18H23.5307V16.2102H23.4284C23.2636 16.5398 23.0165 16.8636 22.6869 17.1818C22.3574 17.5 21.9341 17.7642 21.4171 17.9744C20.9 18.1847 20.2807 18.2898 19.5591 18.2898ZM20.1131 16.2443C20.8176 16.2443 21.4199 16.1051 21.9199 15.8267C22.4256 15.5483 22.8091 15.1847 23.0705 14.7358C23.3375 14.2812 23.471 13.7955 23.471 13.2784V11.5909C23.3801 11.6818 23.204 11.767 22.9426 11.8466C22.6869 11.9205 22.3943 11.9858 22.0648 12.0426C21.7352 12.0937 21.4142 12.142 21.1017 12.1875C20.7892 12.2273 20.5279 12.2614 20.3176 12.2898C19.8233 12.3523 19.3716 12.4574 18.9625 12.6051C18.5591 12.7528 18.2352 12.9659 17.9909 13.2443C17.7523 13.517 17.633 13.8807 17.633 14.3352C17.633 14.9659 17.8659 15.4432 18.3318 15.767C18.7977 16.0852 19.3915 16.2443 20.1131 16.2443ZM29.4135 4.90909H31.9107V15.7926H36.4362V4.90909H38.9334V15.7926H43.459V4.90909H45.9561V18H29.4135V4.90909ZM55.0541 2.8125V0.545454H68.5627V2.8125H63.1166V18H60.4916V2.8125H55.0541ZM75.0868 18.2642C73.797 18.2642 72.6862 17.9886 71.7544 17.4375C70.8283 16.8807 70.1124 16.0994 69.6067 15.0938C69.1067 14.0824 68.8567 12.8977 68.8567 11.5398C68.8567 10.1989 69.1067 9.01705 69.6067 7.99432C70.1124 6.97159 70.8169 6.1733 71.7203 5.59943C72.6294 5.02557 73.6919 4.73864 74.9078 4.73864C75.6465 4.73864 76.3624 4.8608 77.0556 5.10511C77.7487 5.34943 78.3709 5.73295 78.922 6.25568C79.4732 6.77841 79.9078 7.45739 80.226 8.29261C80.5442 9.12216 80.7033 10.1307 80.7033 11.3182V12.2216H70.297V10.3125H78.2061C78.2061 9.64205 78.0698 9.0483 77.797 8.53125C77.5243 8.00852 77.1408 7.59659 76.6465 7.29545C76.1578 6.99432 75.584 6.84375 74.9249 6.84375C74.209 6.84375 73.584 7.01989 73.0499 7.37216C72.5215 7.71875 72.1124 8.1733 71.8226 8.7358C71.5385 9.29261 71.3965 9.89773 71.3965 10.5511V12.0426C71.3965 12.9176 71.5499 13.6619 71.8567 14.2756C72.1692 14.8892 72.6038 15.358 73.1607 15.6818C73.7175 16 74.3681 16.1591 75.1124 16.1591C75.5953 16.1591 76.0357 16.0909 76.4334 15.9545C76.8311 15.8125 77.1749 15.6023 77.4646 15.3239C77.7544 15.0455 77.976 14.7017 78.1294 14.2926L80.5413 14.7273C80.3482 15.4375 80.0016 16.0597 79.5016 16.5938C79.0073 17.1222 78.3851 17.5341 77.6351 17.8295C76.8908 18.1193 76.0413 18.2642 75.0868 18.2642ZM82.4994 18L82.4909 15.7926H82.9597C83.3233 15.7926 83.6273 15.7159 83.8716 15.5625C84.1216 15.4034 84.3261 15.1364 84.4852 14.7614C84.6443 14.3864 84.7665 13.8693 84.8517 13.2102C84.9369 12.5455 84.9994 11.7102 85.0392 10.7045L85.2693 4.90909H94.4057V18H91.9085V7.10795H87.6301L87.4256 11.5568C87.3744 12.6364 87.2636 13.5795 87.0932 14.3864C86.9284 15.1932 86.6869 15.8665 86.3688 16.4062C86.0506 16.9403 85.6415 17.3409 85.1415 17.608C84.6415 17.8693 84.0335 18 83.3176 18H82.4994ZM103.446 18.2642C102.156 18.2642 101.046 17.9886 100.114 17.4375C99.1877 16.8807 98.4717 16.0994 97.9661 15.0938C97.4661 14.0824 97.2161 12.8977 97.2161 11.5398C97.2161 10.1989 97.4661 9.01705 97.9661 7.99432C98.4717 6.97159 99.1763 6.1733 100.08 5.59943C100.989 5.02557 102.051 4.73864 103.267 4.73864C104.006 4.73864 104.722 4.8608 105.415 5.10511C106.108 5.34943 106.73 5.73295 107.281 6.25568C107.833 6.77841 108.267 7.45739 108.585 8.29261C108.904 9.12216 109.063 10.1307 109.063 11.3182V12.2216H98.6564V10.3125H106.565C106.565 9.64205 106.429 9.0483 106.156 8.53125C105.884 8.00852 105.5 7.59659 105.006 7.29545C104.517 6.99432 103.943 6.84375 103.284 6.84375C102.568 6.84375 101.943 7.01989 101.409 7.37216C100.881 7.71875 100.472 8.1733 100.182 8.7358C99.8979 9.29261 99.7558 9.89773 99.7558 10.5511V12.0426C99.7558 12.9176 99.9092 13.6619 100.216 14.2756C100.529 14.8892 100.963 15.358 101.52 15.6818C102.077 16 102.727 16.1591 103.472 16.1591C103.955 16.1591 104.395 16.0909 104.793 15.9545C105.19 15.8125 105.534 15.6023 105.824 15.3239C106.114 15.0455 106.335 14.7017 106.489 14.2926L108.901 14.7273C108.708 15.4375 108.361 16.0597 107.861 16.5938C107.367 17.1222 106.744 17.5341 105.994 17.8295C105.25 18.1193 104.401 18.2642 103.446 18.2642ZM117.524 22.4574V0.545454H120.072V22.4574H117.524ZM117.524 18.2642C116.597 18.2642 115.754 18.1051 114.992 17.7869C114.231 17.4631 113.575 17.0028 113.024 16.4062C112.472 15.8097 112.046 15.0966 111.745 14.267C111.45 13.4375 111.302 12.5199 111.302 11.5142C111.302 10.4972 111.45 9.57386 111.745 8.74432C112.046 7.91477 112.472 7.2017 113.024 6.60511C113.575 6.00852 114.231 5.5483 114.992 5.22443C115.754 4.90057 116.597 4.73864 117.524 4.73864H118.154V18.2642H117.524ZM117.524 16.1165H117.882V6.88636H117.524C116.91 6.88636 116.376 7.01136 115.921 7.26136C115.467 7.50568 115.089 7.84375 114.788 8.27557C114.487 8.7017 114.259 9.19318 114.106 9.75C113.958 10.3068 113.884 10.8949 113.884 11.5142C113.884 12.3437 114.018 13.108 114.285 13.8068C114.552 14.5 114.955 15.0597 115.495 15.4858C116.035 15.9062 116.711 16.1165 117.524 16.1165ZM120.072 18.2642H119.433V4.73864H120.072C120.998 4.73864 121.842 4.90057 122.603 5.22443C123.365 5.5483 124.018 6.00852 124.563 6.60511C125.115 7.2017 125.538 7.91477 125.833 8.74432C126.134 9.57386 126.285 10.4972 126.285 11.5142C126.285 12.5199 126.134 13.4375 125.833 14.267C125.538 15.0966 125.115 15.8097 124.563 16.4062C124.018 17.0028 123.365 17.4631 122.603 17.7869C121.842 18.1051 120.998 18.2642 120.072 18.2642ZM120.072 16.1165C120.686 16.1165 121.22 15.9972 121.674 15.7585C122.129 15.5142 122.507 15.179 122.808 14.7528C123.109 14.321 123.333 13.8295 123.481 13.2784C123.629 12.7216 123.703 12.1335 123.703 11.5142C123.703 10.6903 123.569 9.92898 123.302 9.23011C123.041 8.52557 122.64 7.96023 122.1 7.53409C121.561 7.10227 120.884 6.88636 120.072 6.88636H119.705V16.1165H120.072ZM134.631 18.2642C133.404 18.2642 132.333 17.983 131.418 17.4205C130.503 16.858 129.793 16.071 129.287 15.0597C128.781 14.0483 128.529 12.8665 128.529 11.5142C128.529 10.1562 128.781 8.96875 129.287 7.9517C129.793 6.93466 130.503 6.14489 131.418 5.58239C132.333 5.01989 133.404 4.73864 134.631 4.73864C135.858 4.73864 136.929 5.01989 137.844 5.58239C138.759 6.14489 139.469 6.93466 139.975 7.9517C140.48 8.96875 140.733 10.1562 140.733 11.5142C140.733 12.8665 140.48 14.0483 139.975 15.0597C139.469 16.071 138.759 16.858 137.844 17.4205C136.929 17.983 135.858 18.2642 134.631 18.2642ZM134.639 16.125C135.435 16.125 136.094 15.9148 136.617 15.4943C137.139 15.0739 137.526 14.5142 137.776 13.8153C138.031 13.1165 138.159 12.3466 138.159 11.5057C138.159 10.6705 138.031 9.90341 137.776 9.20455C137.526 8.5 137.139 7.93466 136.617 7.50852C136.094 7.08239 135.435 6.86932 134.639 6.86932C133.838 6.86932 133.173 7.08239 132.645 7.50852C132.122 7.93466 131.733 8.5 131.477 9.20455C131.227 9.90341 131.102 10.6705 131.102 11.5057C131.102 12.3466 131.227 13.1165 131.477 13.8153C131.733 14.5142 132.122 15.0739 132.645 15.4943C133.173 15.9148 133.838 16.125 134.639 16.125ZM152.45 10.3551V12.5625H145.359V10.3551H152.45ZM146.075 4.90909V18H143.578V4.90909H146.075ZM154.231 4.90909V18H151.742V4.90909H154.231Z" fill="white"/>
</svg>
