<svg width="88" height="37" viewBox="0 0 88 37" fill="none" xmlns="http://www.w3.org/2000/svg">
<path d="M12.9659 0.613635C14.5227 0.624999 16.0568 0.90909 17.5682 1.46591C19.0795 2.02273 20.4432 2.93182 21.6591 4.19318C22.8864 5.45455 23.8636 7.15909 24.5909 9.30682C25.3295 11.4432 25.7045 14.1023 25.7159 17.2841C25.7159 20.3409 25.4091 23.0625 24.7955 25.4489C24.1818 27.8239 23.3011 29.8295 22.1534 31.4659C21.017 33.1023 19.6364 34.3466 18.0114 35.1989C16.3864 36.0511 14.5568 36.4773 12.5227 36.4773C10.4432 36.4773 8.59659 36.0682 6.98295 35.25C5.36932 34.4318 4.05682 33.3011 3.04545 31.858C2.03409 30.4034 1.40341 28.733 1.15341 26.8466H6.35227C6.69318 28.3466 7.38636 29.5625 8.43182 30.4943C9.48864 31.4148 10.8523 31.875 12.5227 31.875C15.0795 31.875 17.0739 30.7614 18.5057 28.5341C19.9375 26.2955 20.6591 23.1705 20.6705 19.1591H20.3977C19.8068 20.1364 19.0682 20.9773 18.1818 21.6818C17.3068 22.3864 16.3239 22.9318 15.233 23.3182C14.142 23.7045 12.9773 23.8977 11.7386 23.8977C9.72727 23.8977 7.89773 23.4034 6.25 22.4148C4.60227 21.4261 3.28977 20.0682 2.3125 18.3409C1.33523 16.6136 0.846591 14.642 0.846591 12.4261C0.846591 10.2216 1.34659 8.22159 2.34659 6.42614C3.35795 4.63068 4.76705 3.21023 6.57386 2.16477C8.39205 1.10795 10.5227 0.590907 12.9659 0.613635ZM12.983 5.04545C11.6534 5.04545 10.4545 5.375 9.38636 6.03409C8.32955 6.68182 7.49432 7.5625 6.88068 8.67614C6.26705 9.77841 5.96023 11.0057 5.96023 12.358C5.96023 13.7102 6.25568 14.9375 6.84659 16.0398C7.44886 17.1307 8.26705 18 9.30114 18.6477C10.3466 19.2841 11.5398 19.6023 12.8807 19.6023C13.8807 19.6023 14.8125 19.4091 15.6761 19.0227C16.5398 18.6364 17.2955 18.1023 17.9432 17.4205C18.5909 16.7273 19.0966 15.9432 19.4602 15.0682C19.8239 14.1932 20.0057 13.2727 20.0057 12.3068C20.0057 11.0227 19.6989 9.82955 19.0852 8.72727C18.483 7.625 17.6534 6.73864 16.5966 6.06818C15.5398 5.38636 14.3352 5.04545 12.983 5.04545ZM32.3509 36V1.09091H37.6179V17.7614H38.044L52.6861 1.09091H59.3168L45.2372 16.8068L59.3679 36H53.027L41.7429 20.4034L37.6179 25.142V36H32.3509Z" fill="white"/>
<path d="M74.0781 33.7841V10.7386H78.6634V33.7841H74.0781ZM64.8565 24.5455V19.9602H87.902V24.5455H64.8565Z" fill="#FF9300"/>
</svg>
