<svg width="85" height="37" viewBox="0 0 85 37" fill="none" xmlns="http://www.w3.org/2000/svg">
<path d="M0.357955 36V32.1818L12.1705 19.9432C13.4318 18.6136 14.4716 17.4489 15.2898 16.4489C16.1193 15.4375 16.7386 14.4773 17.1477 13.5682C17.5568 12.6591 17.7614 11.6932 17.7614 10.6705C17.7614 9.51136 17.4886 8.51136 16.9432 7.67045C16.3977 6.81818 15.6534 6.16477 14.7102 5.71023C13.767 5.24432 12.7045 5.01136 11.5227 5.01136C10.2727 5.01136 9.18182 5.26704 8.25 5.77841C7.31818 6.28977 6.60227 7.01136 6.10227 7.94318C5.60227 8.875 5.35227 9.96591 5.35227 11.2159H0.323864C0.323864 9.09091 0.8125 7.23295 1.78977 5.64205C2.76705 4.05114 4.10795 2.81818 5.8125 1.94318C7.51705 1.05682 9.45455 0.613635 11.625 0.613635C13.8182 0.613635 15.75 1.05114 17.4205 1.92614C19.1023 2.78977 20.4148 3.97159 21.358 5.47159C22.3011 6.96023 22.7727 8.64205 22.7727 10.517C22.7727 11.8125 22.5284 13.0795 22.0398 14.3182C21.5625 15.5568 20.7273 16.9375 19.5341 18.4602C18.3409 19.9716 16.6818 21.8068 14.5568 23.9659L7.61932 31.2273V31.483H23.3352V36H0.357955ZM41.5909 36.4773C39.1477 36.4773 36.9886 36.0568 35.1136 35.2159C33.25 34.375 31.7898 33.2159 30.733 31.7386C29.6761 30.2614 29.1534 28.5795 29.1648 26.6932C29.1534 25.2159 29.4545 23.858 30.0682 22.6193C30.6932 21.3693 31.5398 20.3295 32.608 19.5C33.6761 18.6591 34.8693 18.125 36.1875 17.8977V17.6932C34.4489 17.2727 33.0568 16.3409 32.0114 14.8977C30.9659 13.4545 30.4489 11.7955 30.4602 9.92045C30.4489 8.13636 30.9205 6.54545 31.875 5.14773C32.8409 3.73864 34.1648 2.63068 35.8466 1.82386C37.5284 1.01704 39.4432 0.613635 41.5909 0.613635C43.7159 0.613635 45.6136 1.02273 47.2841 1.84091C48.9659 2.64773 50.2898 3.75568 51.2557 5.16477C52.2216 6.5625 52.7102 8.14773 52.7216 9.92045C52.7102 11.7955 52.1761 13.4545 51.1193 14.8977C50.0625 16.3409 48.6875 17.2727 46.9943 17.6932V17.8977C48.3011 18.125 49.4773 18.6591 50.5227 19.5C51.5795 20.3295 52.4205 21.3693 53.0455 22.6193C53.6818 23.858 54.0057 25.2159 54.017 26.6932C54.0057 28.5795 53.4716 30.2614 52.4148 31.7386C51.358 33.2159 49.892 34.375 48.017 35.2159C46.1534 36.0568 44.0114 36.4773 41.5909 36.4773ZM41.5909 32.1648C43.0341 32.1648 44.2841 31.9261 45.3409 31.4489C46.3977 30.9602 47.2159 30.2841 47.7955 29.4205C48.375 28.5455 48.6705 27.5227 48.6818 26.3523C48.6705 25.1364 48.3523 24.0625 47.7273 23.1307C47.1136 22.1989 46.2784 21.4659 45.2216 20.9318C44.1648 20.3977 42.9545 20.1307 41.5909 20.1307C40.2159 20.1307 38.9943 20.3977 37.9261 20.9318C36.858 21.4659 36.017 22.1989 35.4034 23.1307C34.7898 24.0625 34.4886 25.1364 34.5 26.3523C34.4886 27.5227 34.767 28.5455 35.3352 29.4205C35.9148 30.2841 36.7386 30.9602 37.8068 31.4489C38.875 31.9261 40.1364 32.1648 41.5909 32.1648ZM41.5909 15.9205C42.75 15.9205 43.7784 15.6875 44.6761 15.2216C45.5739 14.7557 46.2784 14.108 46.7898 13.2784C47.3125 12.4489 47.5795 11.4773 47.5909 10.3636C47.5795 9.27273 47.3182 8.31818 46.8068 7.5C46.3068 6.68182 45.608 6.05114 44.7102 5.60795C43.8125 5.15341 42.7727 4.92614 41.5909 4.92614C40.3864 4.92614 39.3295 5.15341 38.4205 5.60795C37.5227 6.05114 36.8239 6.68182 36.3239 7.5C35.8239 8.31818 35.5795 9.27273 35.5909 10.3636C35.5795 11.4773 35.8295 12.4489 36.3409 13.2784C36.8523 14.108 37.5568 14.7557 38.4545 15.2216C39.3636 15.6875 40.4091 15.9205 41.5909 15.9205Z" fill="white"/>
<path d="M70.4531 33.7841V10.7386H75.0384V33.7841H70.4531ZM61.2315 24.5455V19.9602H84.277V24.5455H61.2315Z" fill="#FF9300"/>
</svg>
