<svg width="86" height="36" viewBox="0 0 86 36" fill="none" xmlns="http://www.w3.org/2000/svg">
<path d="M0.357955 36V32.1818L12.1705 19.9432C13.4318 18.6136 14.4716 17.4489 15.2898 16.4489C16.1193 15.4375 16.7386 14.4773 17.1477 13.5682C17.5568 12.6591 17.7614 11.6932 17.7614 10.6705C17.7614 9.51136 17.4886 8.51136 16.9432 7.67045C16.3977 6.81818 15.6534 6.16477 14.7102 5.71023C13.767 5.24432 12.7045 5.01136 11.5227 5.01136C10.2727 5.01136 9.18182 5.26704 8.25 5.77841C7.31818 6.28977 6.60227 7.01136 6.10227 7.94318C5.60227 8.875 5.35227 9.96591 5.35227 11.2159H0.323864C0.323864 9.09091 0.8125 7.23295 1.78977 5.64205C2.76705 4.05114 4.10795 2.81818 5.8125 1.94318C7.51705 1.05682 9.45455 0.613635 11.625 0.613635C13.8182 0.613635 15.75 1.05114 17.4205 1.92614C19.1023 2.78977 20.4148 3.97159 21.358 5.47159C22.3011 6.96023 22.7727 8.64205 22.7727 10.517C22.7727 11.8125 22.5284 13.0795 22.0398 14.3182C21.5625 15.5568 20.7273 16.9375 19.5341 18.4602C18.3409 19.9716 16.6818 21.8068 14.5568 23.9659L7.61932 31.2273V31.483H23.3352V36H0.357955ZM30.2727 36V1.09091H35.5398V17.7614H35.9659L50.608 1.09091H57.2386L43.1591 16.8068L57.2898 36H50.9489L39.6648 20.4034L35.5398 25.142V36H30.2727Z" fill="white"/>
<path d="M72 33.7841V10.7386H76.5852V33.7841H72ZM62.7784 24.5455V19.9602H85.8239V24.5455H62.7784Z" fill="#FF9300"/>
</svg>
