<svg width="430" height="21" viewBox="0 0 430 21" fill="none" xmlns="http://www.w3.org/2000/svg">
<path d="M14.9844 4.09375C14.9844 4.4375 14.9805 4.71484 14.9727 4.92578C14.9727 5.12891 14.9609 5.30078 14.9375 5.44141C14.9219 5.57422 14.8906 5.6875 14.8438 5.78125C14.8047 5.86719 14.75 5.96484 14.6797 6.07422C14.5859 6.20703 14.4766 6.33594 14.3516 6.46094C14.2266 6.57812 14.0859 6.68359 13.9297 6.77734C13.7812 6.87109 13.625 6.94922 13.4609 7.01172C13.2969 7.06641 13.1289 7.09375 12.957 7.09375C12.6602 7.09375 12.4453 7 12.3125 6.8125C12.1875 6.61719 12.125 6.33984 12.125 5.98047C12.125 5.81641 12.1484 5.65234 12.1953 5.48828C12.25 5.26953 12.293 5.08203 12.3242 4.92578C12.3555 4.76953 12.3789 4.63281 12.3945 4.51562C12.4102 4.39062 12.418 4.27734 12.418 4.17578C12.4258 4.06641 12.4297 3.95312 12.4297 3.83594C12.4297 3.65625 12.3867 3.53516 12.3008 3.47266C12.2227 3.41016 12.1406 3.37891 12.0547 3.37891C11.7578 3.37891 11.4219 3.4375 11.0469 3.55469C10.6719 3.67188 10.2852 3.83203 9.88672 4.03516C9.49609 4.23828 9.10547 4.47656 8.71484 4.75C8.33203 5.02344 7.97656 5.31641 7.64844 5.62891C7.02344 6.23047 6.44141 6.89062 5.90234 7.60938C5.37109 8.32031 4.91016 9.05469 4.51953 9.8125C4.12891 10.5703 3.82422 11.332 3.60547 12.0977C3.38672 12.8633 3.27734 13.6016 3.27734 14.3125C3.27734 14.5938 3.32031 14.9258 3.40625 15.3086C3.5 15.6914 3.66016 16.0547 3.88672 16.3984C4.12109 16.7422 4.43359 17.0352 4.82422 17.2773C5.22266 17.5117 5.72656 17.6289 6.33594 17.6289C6.84375 17.6289 7.375 17.5664 7.92969 17.4414C8.48438 17.3086 9.04297 17.1328 9.60547 16.9141C10.168 16.6953 10.7227 16.4414 11.2695 16.1523C11.8164 15.8555 12.3398 15.543 12.8398 15.2148C13.1445 15.0117 13.3984 14.8516 13.6016 14.7344C13.8047 14.6172 13.9766 14.5508 14.1172 14.5352C14.2656 14.5352 14.3906 14.5586 14.4922 14.6055C14.5938 14.6523 14.6719 14.7109 14.7266 14.7812C14.7891 14.8516 14.832 14.9297 14.8555 15.0156C14.8867 15.0938 14.9023 15.168 14.9023 15.2383C14.9023 15.3711 14.8477 15.5312 14.7383 15.7188C14.6367 15.8984 14.5039 16.082 14.3398 16.2695C14.1758 16.457 13.9961 16.6406 13.8008 16.8203C13.6133 16.9922 13.4375 17.1406 13.2734 17.2656C12.7891 17.6328 12.2461 17.9844 11.6445 18.3203C11.043 18.6562 10.4141 18.9492 9.75781 19.1992C9.10938 19.457 8.44922 19.6602 7.77734 19.8086C7.11328 19.957 6.47656 20.0312 5.86719 20.0312C5.67969 20.0312 5.41406 20.0039 5.07031 19.9492C4.72656 19.8945 4.34766 19.793 3.93359 19.6445C3.52734 19.4961 3.10938 19.293 2.67969 19.0352C2.25781 18.7773 1.875 18.4453 1.53125 18.0391C1.1875 17.6328 0.902344 17.1445 0.675781 16.5742C0.457031 16.0039 0.347656 15.3359 0.347656 14.5703C0.347656 13.75 0.453125 12.9219 0.664062 12.0859C0.882812 11.25 1.19141 10.418 1.58984 9.58984C1.98828 8.76172 2.46875 7.94531 3.03125 7.14062C3.60156 6.33594 4.23828 5.55859 4.94141 4.80859C5.21484 4.51953 5.51953 4.22656 5.85547 3.92969C6.19922 3.63281 6.55859 3.34766 6.93359 3.07422C7.31641 2.79297 7.71094 2.53125 8.11719 2.28906C8.52344 2.04688 8.93359 1.83594 9.34766 1.65625C9.76172 1.47656 10.168 1.33594 10.5664 1.23438C10.9727 1.125 11.3633 1.07031 11.7383 1.07031C12.3086 1.07031 12.7969 1.17188 13.2031 1.375C13.6172 1.57812 13.9531 1.83203 14.2109 2.13672C14.4766 2.44141 14.6719 2.76953 14.7969 3.12109C14.9219 3.47266 14.9844 3.79688 14.9844 4.09375ZM37.4258 18.2852C37.418 18.4883 37.3516 18.6719 37.2266 18.8359C37.1016 19 36.9258 19.1406 36.6992 19.2578C36.543 19.3438 36.3633 19.4102 36.1602 19.457C35.9648 19.5039 35.7656 19.5273 35.5625 19.5273C35.0938 19.5273 34.6328 19.4297 34.1797 19.2344C33.7266 19.0469 33.2383 18.7773 32.7148 18.4258C32.457 18.2539 32.1289 18.0273 31.7305 17.7461C31.332 17.457 30.875 17.1133 30.3594 16.7148C30.2344 16.6211 29.9883 16.4336 29.6211 16.1523C29.2539 15.8633 28.7656 15.4766 28.1562 14.9922C27.5938 14.5469 27.1445 14.1992 26.8086 13.9492C26.4727 13.6914 26.2812 13.5508 26.2344 13.5273C26.1406 13.4883 26.0469 13.4688 25.9531 13.4688C25.8672 13.4609 25.7031 13.457 25.4609 13.457C25.4062 13.457 25.3516 13.457 25.2969 13.457C25.2422 13.457 25.1758 13.4609 25.0977 13.4688C25.0273 13.4688 24.9297 13.4727 24.8047 13.4805C24.6875 13.4883 24.5273 13.5 24.3242 13.5156C23.8477 13.1797 23.6094 12.7227 23.6094 12.1445C23.6094 11.8633 23.6758 11.6328 23.8086 11.4531C23.9414 11.2734 24.1328 11.1406 24.3828 11.0547C24.4453 11.0391 24.4922 11.0273 24.5234 11.0195C24.5547 11.0117 24.5859 11.0078 24.6172 11.0078C24.6562 11 24.707 10.9922 24.7695 10.9844C24.832 10.9688 24.9219 10.957 25.0391 10.9492C25.2656 10.9492 25.4844 10.9219 25.6953 10.8672C25.9062 10.8125 26.1094 10.7461 26.3047 10.668C26.5078 10.582 26.6992 10.4922 26.8789 10.3984C27.0664 10.2969 27.2461 10.2031 27.418 10.1172C27.668 9.99219 27.9258 9.84766 28.1914 9.68359C28.4648 9.51953 28.7383 9.34766 29.0117 9.16797C29.2539 9.00391 29.4883 8.82422 29.7148 8.62891C29.9492 8.43359 30.1797 8.22266 30.4062 7.99609C30.5859 7.81641 30.7148 7.63672 30.793 7.45703C30.8789 7.26953 30.9219 7.08594 30.9219 6.90625C30.9219 6.63281 30.8359 6.37109 30.6641 6.12109C30.4922 5.87109 30.2734 5.64453 30.0078 5.44141C29.75 5.23828 29.4648 5.0625 29.1523 4.91406C28.8477 4.76562 28.5586 4.65234 28.2852 4.57422C27.7461 4.41797 27.2148 4.33984 26.6914 4.33984C26.5352 4.33984 26.3398 4.34766 26.1055 4.36328C25.8711 4.37891 25.6094 4.40234 25.3203 4.43359C25.0547 4.46484 24.793 4.49609 24.5352 4.52734C24.2852 4.55078 24.043 4.58203 23.8086 4.62109C23.6992 4.63672 23.6133 4.64844 23.5508 4.65625C23.4883 4.66406 23.4258 4.67578 23.3633 4.69141C23.3008 4.69922 23.2266 4.71094 23.1406 4.72656C23.0625 4.74219 22.9531 4.76562 22.8125 4.79688C22.875 4.94531 22.9297 5.10156 22.9766 5.26562C23.0234 5.42969 23.0664 5.60938 23.1055 5.80469C23.1758 6.10938 23.2188 6.39062 23.2344 6.64844C23.2578 6.89844 23.2695 7.125 23.2695 7.32812C23.2695 7.5625 23.2656 7.78516 23.2578 7.99609C23.2578 8.20703 23.25 8.41406 23.2344 8.61719C23.2109 9.03125 23.1641 9.44531 23.0938 9.85938C23.0234 10.2656 22.9297 10.793 22.8125 11.4414C22.7188 11.9961 22.6406 12.4883 22.5781 12.918C22.5156 13.3398 22.4648 13.7148 22.4258 14.043C22.3867 14.3555 22.3555 14.6602 22.332 14.957C22.3164 15.2539 22.3086 15.5352 22.3086 15.8008C22.3086 16.043 22.3203 16.2734 22.3438 16.4922C22.3672 16.7109 22.4023 16.9258 22.4492 17.1367C22.5039 17.3398 22.5742 17.543 22.6602 17.7461C22.7539 17.9492 22.8672 18.1602 23 18.3789C22.9219 18.5039 22.8203 18.6211 22.6953 18.7305C22.5781 18.8398 22.4492 18.9375 22.3086 19.0234C22.1758 19.1094 22.0391 19.1758 21.8984 19.2227C21.7578 19.2773 21.625 19.3047 21.5 19.3047C20.8672 19.3047 20.4062 19.1719 20.1172 18.9062C19.7891 18.625 19.5898 18.2969 19.5195 17.9219C19.4805 17.7344 19.4531 17.5234 19.4375 17.2891C19.4297 17.0547 19.4258 16.7891 19.4258 16.4922C19.4258 16.0625 19.4492 15.6484 19.4961 15.25C19.5352 14.8984 19.5781 14.5625 19.625 14.2422C19.6797 13.9141 19.7383 13.5898 19.8008 13.2695C19.8398 13.1289 19.8711 12.9961 19.8945 12.8711C19.918 12.7461 19.9375 12.6172 19.9531 12.4844C19.9766 12.3438 20 12.1953 20.0234 12.0391C20.0469 11.875 20.0742 11.6875 20.1055 11.4766C20.207 10.8359 20.2891 10.2188 20.3516 9.625C20.4141 9.03125 20.4453 8.48828 20.4453 7.99609C20.4453 7.62109 20.4336 7.23047 20.4102 6.82422C20.3945 6.41016 20.3633 5.98047 20.3164 5.53516C20.0664 5.60547 19.8555 5.66016 19.6836 5.69922C19.5117 5.73047 19.3945 5.74609 19.332 5.74609C18.918 5.74609 18.6406 5.64844 18.5 5.45312C18.3672 5.25 18.3008 4.96875 18.3008 4.60938C18.3008 4.20312 18.6523 3.82812 19.3555 3.48438C19.6289 3.35156 19.9023 3.23047 20.1758 3.12109C20.457 3.01172 20.7344 2.91406 21.0078 2.82812C21.3125 2.73438 21.6758 2.64453 22.0977 2.55859C22.5195 2.47266 22.9844 2.39062 23.4922 2.3125C23.9766 2.24219 24.4375 2.1875 24.875 2.14844C25.3125 2.10156 25.7031 2.07812 26.0469 2.07812C27.2344 2.07812 28.3789 2.21875 29.4805 2.5C30.0586 2.64844 30.5898 2.84766 31.0742 3.09766C31.5586 3.34766 31.9922 3.64844 32.375 4C33.2188 4.75781 33.6406 5.73828 33.6406 6.94141C33.6406 7.72266 33.3398 8.49219 32.7383 9.25C32.2305 9.875 31.6484 10.4219 30.9922 10.8906C30.3359 11.3516 29.6133 11.7969 28.8242 12.2266C29.0742 12.4062 29.3242 12.5859 29.5742 12.7656C29.8242 12.9453 30.0938 13.1328 30.3828 13.3281C30.8125 13.625 31.2109 13.9062 31.5781 14.1719C31.9531 14.4375 32.3047 14.6836 32.6328 14.9102C32.9609 15.1367 33.3203 15.3867 33.7109 15.6602C34.1094 15.9336 34.5469 16.2344 35.0234 16.5625C35.4766 16.8672 35.8906 17.1445 36.2656 17.3945C36.6484 17.6367 36.9648 17.8359 37.2148 17.9922L37.4258 18.2852ZM51.7344 4.12891C51.1875 4.13672 50.5781 4.15625 49.9062 4.1875C49.2344 4.21875 48.5469 4.26562 47.8438 4.32812C47.1406 4.38281 46.4453 4.45703 45.7578 4.55078C45.0703 4.63672 44.4297 4.74609 43.8359 4.87891C43.7578 4.89453 43.6953 4.94531 43.6484 5.03125C43.6094 5.11719 43.5781 5.21875 43.5547 5.33594C43.5391 5.45312 43.5234 5.57812 43.5078 5.71094C43.5 5.83594 43.4883 5.94922 43.4727 6.05078C43.4258 6.32422 43.3633 6.62109 43.2852 6.94141C43.2148 7.25391 43.1406 7.57812 43.0625 7.91406C42.9922 8.25 42.9219 8.58594 42.8516 8.92188C42.7812 9.25781 42.7305 9.58594 42.6992 9.90625C42.9883 9.90625 43.3281 9.89062 43.7188 9.85938C44.1172 9.82812 44.5156 9.79297 44.9141 9.75391C45.3125 9.70703 45.6836 9.66016 46.0273 9.61328C46.3789 9.55859 46.6523 9.50781 46.8477 9.46094C47.3945 9.32812 47.8906 9.22656 48.3359 9.15625C48.7891 9.08594 49.1641 9.05078 49.4609 9.05078C49.7266 9.05078 49.9727 9.07031 50.1992 9.10938C50.4258 9.14062 50.6211 9.19922 50.7852 9.28516C50.9492 9.37109 51.0781 9.48438 51.1719 9.625C51.2656 9.76562 51.3125 9.94141 51.3125 10.1523C51.3125 10.5508 51.2266 10.8477 51.0547 11.043C50.8828 11.2383 50.6367 11.3867 50.3164 11.4883C50.0039 11.582 49.6211 11.6523 49.168 11.6992C48.7227 11.7461 48.2188 11.8164 47.6562 11.9102C47.3594 11.957 46.9883 12.0078 46.543 12.0625C46.0977 12.1094 45.6367 12.1641 45.1602 12.2266C44.6836 12.2812 44.2266 12.3438 43.7891 12.4141C43.3516 12.4766 42.9922 12.5508 42.7109 12.6367H42.6992C42.5898 12.668 42.5039 12.7305 42.4414 12.8242C42.3867 12.9102 42.3359 13.0664 42.2891 13.293C42.2344 13.5508 42.1797 13.8359 42.125 14.1484C42.0703 14.4609 42.0195 14.7656 41.9727 15.0625C41.9336 15.3594 41.8984 15.6367 41.8672 15.8945C41.8438 16.1445 41.832 16.3398 41.832 16.4805C41.8711 16.6836 41.9414 16.8086 42.043 16.8555C42.1523 16.8945 42.2617 16.9141 42.3711 16.9141C42.5039 16.9141 42.7461 16.8984 43.0977 16.8672C43.457 16.8281 43.8711 16.7812 44.3398 16.7266C44.8086 16.6641 45.3047 16.5977 45.8281 16.5273C46.3516 16.457 46.8477 16.3867 47.3164 16.3164C47.793 16.2461 48.2148 16.1836 48.582 16.1289C48.9492 16.0742 49.207 16.0312 49.3555 16C49.8711 15.8906 50.3203 15.8086 50.7031 15.7539C51.0938 15.6914 51.3438 15.6602 51.4531 15.6602C51.9219 15.7227 52.2852 15.875 52.543 16.1172C52.8086 16.3516 52.9414 16.6602 52.9414 17.043C52.9414 17.1992 52.9141 17.3477 52.8594 17.4883C52.8125 17.6289 52.7227 17.7539 52.5898 17.8633C52.0664 18.0898 51.5234 18.25 50.9609 18.3438C50.4062 18.4297 49.8672 18.4883 49.3438 18.5195C48.9922 18.543 48.5938 18.5781 48.1484 18.625C47.7109 18.6641 47.2656 18.7148 46.8125 18.7773C46.3594 18.832 45.9219 18.8867 45.5 18.9414C45.0859 18.9961 44.7188 19.0469 44.3984 19.0938C44.1406 19.1484 43.8516 19.1992 43.5312 19.2461C43.2188 19.3008 42.8906 19.3477 42.5469 19.3867C42.2109 19.4336 41.8711 19.4688 41.5273 19.4922C41.1914 19.5156 40.8672 19.5273 40.5547 19.5273C40.3125 19.5273 40.082 19.5039 39.8633 19.457C39.6523 19.418 39.4609 19.3359 39.2891 19.2109C39.125 19.0938 38.9883 18.9258 38.8789 18.707C38.7773 18.4883 38.7109 18.207 38.6797 17.8633L38.6445 17.4766C38.6445 17.3984 38.6602 17.3047 38.6914 17.1953C38.7305 17.0859 38.7773 16.9414 38.832 16.7617C38.8945 16.582 38.9609 16.3594 39.0312 16.0938C39.1016 15.8281 39.1758 15.5078 39.2539 15.1328C39.332 14.7344 39.4062 14.3203 39.4766 13.8906C39.5469 13.4531 39.6133 13.0156 39.6758 12.5781C39.7383 12.1406 39.7969 11.7148 39.8516 11.3008C39.9141 10.8789 39.9688 10.4844 40.0156 10.1172C40.1328 9.25781 40.2305 8.54297 40.3086 7.97266C40.3945 7.39453 40.4648 6.91406 40.5195 6.53125C40.5742 6.14062 40.6133 5.81641 40.6367 5.55859C40.6602 5.30078 40.6719 5.05469 40.6719 4.82031C40.6719 4.8125 40.6445 4.78516 40.5898 4.73828C40.543 4.68359 40.4688 4.55469 40.3672 4.35156C40.2578 4.13281 40.1914 3.96484 40.168 3.84766C40.1445 3.72266 40.1328 3.60547 40.1328 3.49609C40.1328 3.43359 40.1328 3.37891 40.1328 3.33203C40.1406 3.28516 40.1562 3.22656 40.1797 3.15625C40.1953 3.07031 40.25 2.98438 40.3438 2.89844C40.4375 2.8125 40.5469 2.73438 40.6719 2.66406C40.8047 2.59375 40.9453 2.53516 41.0938 2.48828C41.25 2.44141 41.3984 2.41797 41.5391 2.41797C41.7031 2.42578 41.832 2.43359 41.9258 2.44141C42.0195 2.44141 42.0977 2.44531 42.1602 2.45312C42.2305 2.45312 42.2969 2.45703 42.3594 2.46484C42.4297 2.46484 42.5273 2.47266 42.6523 2.48828C42.8711 2.48828 43.2227 2.46484 43.707 2.41797C44.1992 2.37109 44.7461 2.3125 45.3477 2.24219C45.9492 2.17188 46.5703 2.09766 47.2109 2.01953C47.8516 1.93359 48.4375 1.85547 48.9688 1.78516C49.5078 1.71484 49.9492 1.66016 50.293 1.62109C50.6445 1.57422 50.8281 1.55078 50.8438 1.55078C50.8828 1.54297 50.9375 1.53906 51.0078 1.53906C51.0781 1.53906 51.1445 1.53906 51.207 1.53906C51.6523 1.53906 52.0039 1.58203 52.2617 1.66797C52.5195 1.74609 52.7109 1.85156 52.8359 1.98438C52.9609 2.11719 53.0391 2.26562 53.0703 2.42969C53.1016 2.58594 53.1172 2.74219 53.1172 2.89844C53.1172 3 53.0781 3.11719 53 3.25C52.9219 3.38281 52.8242 3.50781 52.707 3.625C52.5977 3.74219 52.4766 3.84766 52.3438 3.94141C52.2188 4.02734 52.1055 4.08203 52.0039 4.10547L51.7344 4.12891ZM65.3516 12.0156C65.6953 11.9297 66.043 11.8398 66.3945 11.7461C66.7539 11.6523 67.0859 11.5586 67.3906 11.4648C67.2656 11.082 67.1367 10.6836 67.0039 10.2695C66.8711 9.85547 66.7305 9.44531 66.582 9.03906C66.4414 8.625 66.2969 8.22656 66.1484 7.84375C66 7.45312 65.8438 7.09766 65.6797 6.77734C65.0156 7.68359 64.3477 8.63672 63.6758 9.63672C63.0117 10.6367 62.3789 11.6562 61.7773 12.6953C62.0117 12.6719 62.2578 12.6562 62.5156 12.6484C62.7734 12.6328 62.9805 12.6016 63.1367 12.5547C63.3477 12.4922 63.5352 12.4375 63.6992 12.3906C63.8711 12.3438 64.0391 12.3008 64.2031 12.2617C64.375 12.2227 64.5508 12.1836 64.7305 12.1445C64.9102 12.1055 65.1172 12.0625 65.3516 12.0156ZM73.1797 17.9219C73.1797 18.1172 73.1406 18.3008 73.0625 18.4727C72.9922 18.6445 72.8906 18.7969 72.7578 18.9297C72.6328 19.0547 72.4766 19.1562 72.2891 19.2344C72.1094 19.3125 71.9141 19.3516 71.7031 19.3516C71.5078 19.3516 71.3164 19.2891 71.1289 19.1641C70.9414 19.0391 70.7578 18.8789 70.5781 18.6836C70.4062 18.4883 70.2383 18.2695 70.0742 18.0273C69.918 17.7773 69.7734 17.5273 69.6406 17.2773C69.5156 17.0273 69.4023 16.7891 69.3008 16.5625C69.1992 16.3359 69.1172 16.1484 69.0547 16C68.9688 15.7891 68.8828 15.5938 68.7969 15.4141C68.7109 15.2344 68.6211 15.0039 68.5273 14.7227C68.4727 14.5664 68.4297 14.4492 68.3984 14.3711C68.375 14.293 68.3516 14.2344 68.3281 14.1953C68.3125 14.1484 68.2969 14.1133 68.2812 14.0898C68.2734 14.0586 68.2617 14.0156 68.2461 13.9609C68.0898 14.0312 67.9219 14.0742 67.7422 14.0898C67.5625 14.0977 67.3633 14.1016 67.1445 14.1016C67.1055 14.1016 67.0391 14.1172 66.9453 14.1484C66.8516 14.1719 66.7422 14.2031 66.6172 14.2422C66.5 14.2812 66.375 14.3242 66.2422 14.3711C66.1172 14.4102 65.9961 14.4453 65.8789 14.4766C65.5039 14.5703 65.0977 14.6602 64.6602 14.7461C64.2227 14.832 63.7656 14.918 63.2891 15.0039C62.8125 15.082 62.3242 15.1641 61.8242 15.25C61.332 15.3281 60.8359 15.4102 60.3359 15.4961C60.2812 15.5039 60.2344 15.5195 60.1953 15.543C60.1562 15.5664 60.1016 15.6289 60.0312 15.7305C59.9609 15.8242 59.8555 15.9727 59.7148 16.1758C59.5742 16.3789 59.375 16.668 59.1172 17.043C58.8203 17.4727 58.5391 17.8477 58.2734 18.168C58.0078 18.4805 57.7578 18.75 57.5234 18.9766C57.2969 19.2031 57.0547 19.375 56.7969 19.4922C56.5469 19.6094 56.2852 19.668 56.0117 19.668C55.6523 19.668 55.332 19.6211 55.0508 19.5273C54.7695 19.4414 54.5312 19.3281 54.3359 19.1875C54.1484 19.0469 54.0039 18.8945 53.9023 18.7305C53.8086 18.5664 53.7617 18.4141 53.7617 18.2734C53.7617 18.0078 53.875 17.8242 54.1016 17.7227C54.3281 17.6133 54.6406 17.5234 55.0391 17.4531C55.0391 17.4453 55.082 17.3867 55.168 17.2773C55.2539 17.168 55.3555 17.043 55.4727 16.9023C55.5898 16.7617 55.7031 16.625 55.8125 16.4922C55.9297 16.3516 56.0117 16.2461 56.0586 16.1758C56.3633 15.7539 56.6797 15.3164 57.0078 14.8633C57.3438 14.4023 57.7109 13.875 58.1094 13.2812V13.293C58.3125 12.9961 58.4766 12.75 58.6016 12.5547C58.7344 12.3594 58.8594 12.1758 58.9766 12.0039C59.0938 11.832 59.2148 11.6562 59.3398 11.4766C59.4727 11.2969 59.6328 11.0742 59.8203 10.8086C60.3047 10.1289 60.7266 9.55469 61.0859 9.08594C61.4531 8.60938 61.7539 8.21484 61.9883 7.90234C62.2695 7.46484 62.5352 7.04688 62.7852 6.64844C62.8945 6.47656 63 6.30469 63.1016 6.13281C63.2031 5.95312 63.3008 5.78125 63.3945 5.61719C63.4883 5.45312 63.5703 5.30078 63.6406 5.16016C63.7188 5.01172 63.7773 4.88672 63.8164 4.78516C64.7461 2.51172 65.543 1.375 66.207 1.375C66.4961 1.375 66.7305 1.39844 66.9102 1.44531C67.0898 1.48437 67.2266 1.55859 67.3203 1.66797C67.4219 1.76953 67.4883 1.90625 67.5195 2.07812C67.5586 2.25 67.5781 2.46484 67.5781 2.72266C67.5781 2.96484 67.5781 3.15625 67.5781 3.29688C67.5781 3.42969 67.5742 3.54688 67.5664 3.64844C67.5586 3.75 67.5508 3.85156 67.543 3.95312C67.543 4.05469 67.5352 4.19141 67.5195 4.36328C67.707 4.76172 67.8867 5.17188 68.0586 5.59375C68.2383 6.01562 68.4062 6.43359 68.5625 6.84766C68.5938 6.94141 68.6602 7.14062 68.7617 7.44531C68.8711 7.74219 68.9961 8.09375 69.1367 8.5C69.2852 8.90625 69.4375 9.33594 69.5938 9.78906C69.7578 10.2422 69.9062 10.668 70.0391 11.0664C70.1797 11.4648 70.3008 11.8086 70.4023 12.0977C70.5039 12.3867 70.5703 12.5703 70.6016 12.6484C70.7031 13.0859 70.9883 13.8086 71.457 14.8164C71.5195 14.9414 71.5703 15.0508 71.6094 15.1445C71.6562 15.2383 71.707 15.3359 71.7617 15.4375C71.8242 15.5391 71.9023 15.6562 71.9961 15.7891C72.0898 15.9219 72.2148 16.0938 72.3711 16.3047C72.9102 17.0391 73.1797 17.5781 73.1797 17.9219ZM91.6836 3.00391C91.6836 3.23828 91.5703 3.48828 91.3438 3.75391C91.125 4.01953 90.7852 4.23438 90.3242 4.39844C89.832 4.57031 89.332 4.72266 88.8242 4.85547C88.3164 4.98828 87.7461 5.11328 87.1133 5.23047C86.8789 5.27734 86.6484 5.32031 86.4219 5.35938C86.1953 5.39844 85.957 5.44141 85.707 5.48828C85.457 5.52734 85.1914 5.57031 84.9102 5.61719C84.6289 5.65625 84.3164 5.70312 83.9727 5.75781C83.8711 6.30469 83.7812 6.90234 83.7031 7.55078C83.625 8.19141 83.5312 8.82031 83.4219 9.4375C83.3906 9.60938 83.3555 9.83203 83.3164 10.1055C83.2852 10.3789 83.25 10.6797 83.2109 11.0078C83.1797 11.3359 83.1445 11.6797 83.1055 12.0391C83.0664 12.3906 83.0312 12.7344 83 13.0703C82.9688 13.3984 82.9414 13.7031 82.918 13.9844C82.8945 14.2656 82.875 14.4961 82.8594 14.6758C82.8359 15.0039 82.8125 15.3398 82.7891 15.6836C82.7656 16.0195 82.7461 16.3594 82.7305 16.7031C82.7227 16.8984 82.7031 17.125 82.6719 17.3828C82.6484 17.6406 82.6172 17.8945 82.5781 18.1445C82.5391 18.3867 82.4961 18.6055 82.4492 18.8008C82.4102 18.9883 82.3711 19.1094 82.332 19.1641C82.0742 19.25 81.8672 19.3047 81.7109 19.3281C81.5547 19.3594 81.3906 19.375 81.2188 19.375C80.9688 19.375 80.7383 19.3477 80.5273 19.293C80.3164 19.2461 80.1367 19.1641 79.9883 19.0469C79.8398 18.9375 79.7227 18.793 79.6367 18.6133C79.5586 18.4336 79.5195 18.2148 79.5195 17.957C79.5195 17.4414 79.5625 16.9141 79.6484 16.375C79.7344 15.8359 79.8125 15.3047 79.8828 14.7812C79.8906 14.7422 79.918 14.5664 79.9648 14.2539C80.0117 13.9414 80.0703 13.5586 80.1406 13.1055C80.2188 12.6445 80.3008 12.1523 80.3867 11.6289C80.4727 11.1055 80.5508 10.6172 80.6211 10.1641C80.6992 9.70312 80.7617 9.31641 80.8086 9.00391C80.8633 8.68359 80.8906 8.50391 80.8906 8.46484C80.9375 8.09766 80.9805 7.70703 81.0195 7.29297C81.0586 6.87891 81.1016 6.52344 81.1484 6.22656C81.0547 6.22656 80.875 6.23828 80.6094 6.26172C80.3438 6.27734 80.0312 6.29688 79.6719 6.32031C79.3203 6.34375 78.9453 6.37109 78.5469 6.40234C78.1484 6.42578 77.7695 6.44922 77.4102 6.47266C77.0508 6.48828 76.7305 6.50391 76.4492 6.51953C76.1758 6.53516 75.9805 6.54297 75.8633 6.54297C75.0117 6.54297 74.3477 6.43359 73.8711 6.21484C73.4023 5.98828 73.168 5.59766 73.168 5.04297C73.168 4.94922 73.1992 4.82422 73.2617 4.66797C73.3242 4.51172 73.4102 4.35547 73.5195 4.19922C73.6289 4.04297 73.7539 3.91016 73.8945 3.80078C74.0352 3.68359 74.1797 3.625 74.3281 3.625C74.6094 3.625 74.8867 3.66016 75.1602 3.73047C75.4336 3.80078 75.6562 3.85547 75.8281 3.89453C75.9141 3.91016 76 3.92578 76.0859 3.94141C76.1797 3.94922 76.2812 3.95312 76.3906 3.95312C76.5312 3.95312 76.707 3.94922 76.918 3.94141C77.1289 3.93359 77.3711 3.92969 77.6445 3.92969C77.8398 3.92969 78.0938 3.91797 78.4062 3.89453C78.7188 3.87109 79.0586 3.83984 79.4258 3.80078C79.8008 3.76172 80.1836 3.71875 80.5742 3.67188C80.9648 3.625 81.3359 3.57812 81.6875 3.53125C82.0469 3.48438 82.3672 3.44141 82.6484 3.40234C82.9375 3.36328 83.1602 3.33203 83.3164 3.30859C84.2227 3.18359 85.0898 3.04688 85.918 2.89844C86.7539 2.75 87.543 2.60547 88.2852 2.46484C88.5664 2.41016 88.7891 2.36328 88.9531 2.32422C89.125 2.28516 89.2734 2.25 89.3984 2.21875C89.5234 2.17969 89.6484 2.14062 89.7734 2.10156C89.9062 2.05469 90.0703 2.00391 90.2656 1.94922C90.4922 1.94922 90.6914 1.95703 90.8633 1.97266C91.043 1.98047 91.1914 2.01953 91.3086 2.08984C91.4336 2.16016 91.5273 2.26562 91.5898 2.40625C91.6523 2.54688 91.6836 2.74609 91.6836 3.00391ZM96.875 4.05859C96.875 4.16797 96.8516 4.36328 96.8047 4.64453C96.7656 4.91797 96.6602 5.26172 96.4883 5.67578C96.3555 6.01172 96.25 6.29688 96.1719 6.53125C96.0938 6.76562 96.0469 6.94141 96.0312 7.05859C95.8906 7.94922 95.7539 8.90625 95.6211 9.92969C95.4961 10.9531 95.3555 12.0625 95.1992 13.2578C95.1602 13.5859 95.1172 13.9297 95.0703 14.2891C95.0312 14.6406 94.9961 14.9727 94.9648 15.2852C94.9336 15.5977 94.9062 15.875 94.8828 16.1172C94.8672 16.3516 94.8594 16.5117 94.8594 16.5977C94.8594 16.6602 94.875 16.7383 94.9062 16.832C94.9375 16.918 94.9727 17.0078 95.0117 17.1016C95.0508 17.1953 95.0859 17.2852 95.1172 17.3711C95.1484 17.457 95.1641 17.5312 95.1641 17.5938C95.1641 17.7734 95.1094 17.9531 95 18.1328C94.8906 18.3125 94.7109 18.4883 94.4609 18.6602C94.2578 18.8086 94.0547 18.9219 93.8516 19C93.6484 19.0703 93.4453 19.1133 93.2422 19.1289C92.8672 19.1289 92.5742 19.0352 92.3633 18.8477C92.1602 18.6602 92.0078 18.4375 91.9062 18.1797C91.8125 17.9219 91.7578 17.6523 91.7422 17.3711C91.7266 17.0898 91.7188 16.8555 91.7188 16.668C91.7188 16.293 91.7266 15.9375 91.7422 15.6016C91.7656 15.2578 91.7969 14.9219 91.8359 14.5938C91.8984 14.0625 91.9883 13.4414 92.1055 12.7305C92.2227 12.0195 92.3477 11.2656 92.4805 10.4688C92.5039 10.3438 92.5391 10.1445 92.5859 9.87109C92.6406 9.59766 92.6992 9.28516 92.7617 8.93359C92.832 8.57422 92.9023 8.19922 92.9727 7.80859C93.0508 7.41016 93.125 7.03125 93.1953 6.67188C93.2656 6.3125 93.3281 5.99219 93.3828 5.71094C93.4375 5.42188 93.4766 5.20703 93.5 5.06641C93.5469 4.80859 93.582 4.60938 93.6055 4.46875C93.6289 4.32812 93.6523 4.19922 93.6758 4.08203C93.6992 3.95703 93.7266 3.82031 93.7578 3.67188C93.7891 3.52344 93.832 3.31641 93.8867 3.05078L93.875 3.07422C93.8906 2.94922 93.9375 2.8125 94.0156 2.66406C94.0938 2.50781 94.1875 2.36328 94.2969 2.23047C94.4141 2.08984 94.543 1.97656 94.6836 1.89062C94.832 1.79688 94.9766 1.75 95.1172 1.75C95.4453 1.75 95.7227 1.82813 95.9492 1.98438C96.1758 2.13281 96.3555 2.31641 96.4883 2.53516C96.6289 2.75391 96.7266 2.98828 96.7812 3.23828C96.8438 3.48047 96.875 3.69531 96.875 3.88281V4.05859ZM113.621 3.27344C113.621 3.44531 113.57 3.61328 113.469 3.77734C113.367 3.94141 113.234 4.08594 113.07 4.21094C112.914 4.33594 112.742 4.4375 112.555 4.51562C112.367 4.58594 112.188 4.62109 112.016 4.62109C111.867 4.62109 111.688 4.62109 111.477 4.62109C111.273 4.61328 111.07 4.60938 110.867 4.60938C110.672 4.60938 110.488 4.60938 110.316 4.60938C110.145 4.60156 110.016 4.59766 109.93 4.59766C109.758 4.59766 109.551 4.60156 109.309 4.60938C109.074 4.61719 108.828 4.625 108.57 4.63281C108.312 4.64062 108.059 4.65234 107.809 4.66797C107.559 4.67578 107.344 4.6875 107.164 4.70312C106.43 4.75 105.84 4.8125 105.395 4.89062C104.949 4.96875 104.59 5.07812 104.316 5.21875C104.316 5.64062 104.281 6.08203 104.211 6.54297C104.141 7.00391 104.062 7.44141 103.977 7.85547C103.914 8.16016 103.859 8.48438 103.812 8.82812C103.766 9.16406 103.73 9.49219 103.707 9.8125C103.855 9.82812 104.023 9.83984 104.211 9.84766C104.406 9.85547 104.605 9.85938 104.809 9.85938C105.066 9.85938 105.32 9.85938 105.57 9.85938C105.82 9.85156 106.039 9.84375 106.227 9.83594C106.312 9.83594 106.469 9.83203 106.695 9.82422C106.93 9.80859 107.195 9.79688 107.492 9.78906C107.789 9.77344 108.105 9.75781 108.441 9.74219C108.777 9.72656 109.094 9.71094 109.391 9.69531C109.695 9.67969 109.965 9.66797 110.199 9.66016C110.434 9.65234 110.598 9.64844 110.691 9.64844C110.84 9.64844 110.988 9.65234 111.137 9.66016C111.285 9.66797 111.422 9.67969 111.547 9.69531C111.68 9.70312 111.793 9.71484 111.887 9.73047C111.98 9.73828 112.051 9.75 112.098 9.76562C112.27 9.8125 112.418 9.89062 112.543 10C112.668 10.1016 112.73 10.2695 112.73 10.5039C112.73 10.7148 112.699 10.8945 112.637 11.043C112.574 11.1914 112.488 11.3203 112.379 11.4297C112.277 11.5312 112.156 11.6211 112.016 11.6992C111.883 11.7773 111.746 11.8477 111.605 11.9102C111.363 12.0195 111.07 12.0977 110.727 12.1445C110.391 12.1914 110.004 12.2148 109.566 12.2148C109.293 12.2148 108.984 12.2305 108.641 12.2617C108.297 12.293 107.961 12.3086 107.633 12.3086C107.289 12.3086 106.918 12.3164 106.52 12.332C106.129 12.3477 105.738 12.3672 105.348 12.3906C104.965 12.4141 104.602 12.4336 104.258 12.4492C103.914 12.4648 103.621 12.4727 103.379 12.4727C103.168 13.332 103.027 14.2422 102.957 15.2031C102.887 16.1641 102.852 17.1094 102.852 18.0391V18.2969C102.742 18.5859 102.578 18.8203 102.359 19C102.148 19.1719 101.891 19.2578 101.586 19.2578C101.227 19.2578 100.938 19.2148 100.719 19.1289C100.508 19.043 100.344 18.918 100.227 18.7539C100.117 18.582 100.043 18.3672 100.004 18.1094C99.9727 17.8438 99.957 17.5352 99.957 17.1836C99.9727 16.8711 99.9883 16.5703 100.004 16.2812C100.02 15.9844 100.047 15.6875 100.086 15.3906C100.133 15.0078 100.195 14.5898 100.273 14.1367C100.352 13.6758 100.434 13.2031 100.52 12.7188C100.605 12.2344 100.691 11.75 100.777 11.2656C100.863 10.7812 100.938 10.3203 101 9.88281C101.008 9.84375 101.027 9.70703 101.059 9.47266C101.09 9.23047 101.129 8.94141 101.176 8.60547C101.223 8.26172 101.27 7.89453 101.316 7.50391C101.371 7.11328 101.422 6.75 101.469 6.41406C101.516 6.07812 101.555 5.79688 101.586 5.57031C101.617 5.33594 101.637 5.20703 101.645 5.18359C101.535 5.15234 101.434 5.09375 101.34 5.00781C101.254 4.92188 101.18 4.82422 101.117 4.71484C101.062 4.59766 101.02 4.47656 100.988 4.35156C100.957 4.21875 100.941 4.09375 100.941 3.97656C100.941 3.47656 101.066 3.10156 101.316 2.85156C101.566 2.60156 101.902 2.47656 102.324 2.47656C102.699 2.47656 103.07 2.46875 103.438 2.45312C103.812 2.4375 104.125 2.42969 104.375 2.42969C104.664 2.42969 104.902 2.42969 105.09 2.42969C105.277 2.42188 105.445 2.41406 105.594 2.40625C105.75 2.39062 105.906 2.375 106.062 2.35938C106.219 2.34375 106.41 2.32031 106.637 2.28906H106.625C106.703 2.28125 106.785 2.27344 106.871 2.26562C106.965 2.25781 107.062 2.24609 107.164 2.23047C108 2.12109 108.824 2.04688 109.637 2.00781C110.457 1.96875 111.25 1.94922 112.016 1.94922C112.195 1.94922 112.379 1.97656 112.566 2.03125C112.762 2.08594 112.938 2.17188 113.094 2.28906C113.25 2.39844 113.375 2.53516 113.469 2.69922C113.57 2.86328 113.621 3.05469 113.621 3.27344ZM127.461 4C127.367 4.07812 127.246 4.12891 127.098 4.15234C126.957 4.16797 126.801 4.17578 126.629 4.17578C126.285 4.17578 125.961 4.18359 125.656 4.19922C125.352 4.20703 125.125 4.21094 124.977 4.21094C124.781 4.21094 124.52 4.22656 124.191 4.25781C123.863 4.28906 123.508 4.32812 123.125 4.375C122.742 4.42188 122.352 4.48047 121.953 4.55078C121.555 4.61328 121.184 4.67969 120.84 4.75C120.496 4.82031 120.199 4.89453 119.949 4.97266C119.707 5.04297 119.547 5.10938 119.469 5.17188C119.422 5.25 119.348 5.47656 119.246 5.85156C119.145 6.21875 119.043 6.66797 118.941 7.19922C118.84 7.72266 118.75 8.29297 118.672 8.91016C118.594 9.52734 118.555 10.125 118.555 10.7031C118.984 10.6172 119.426 10.5234 119.879 10.4219C120.332 10.3125 120.824 10.2109 121.355 10.1172C121.645 10.0703 121.953 10 122.281 9.90625C122.617 9.8125 122.953 9.71875 123.289 9.625C123.625 9.53125 123.949 9.44922 124.262 9.37891C124.582 9.30859 124.871 9.27344 125.129 9.27344C125.41 9.27344 125.645 9.28516 125.832 9.30859C126.027 9.32422 126.184 9.36328 126.301 9.42578C126.426 9.48828 126.512 9.58594 126.559 9.71875C126.613 9.84375 126.641 10.0195 126.641 10.2461C126.641 10.4492 126.59 10.6484 126.488 10.8438C126.395 11.0312 126.27 11.207 126.113 11.3711C126.004 11.4883 125.797 11.5977 125.492 11.6992C125.195 11.8008 124.871 11.8945 124.52 11.9805C124.176 12.0586 123.844 12.1289 123.523 12.1914C123.211 12.2461 122.984 12.2852 122.844 12.3086C122.297 12.4023 121.754 12.5078 121.215 12.625C120.684 12.7344 120.203 12.8438 119.773 12.9531C119.344 13.0625 118.988 13.168 118.707 13.2695C118.434 13.3633 118.281 13.4414 118.25 13.5039C118.195 13.6289 118.148 13.7969 118.109 14.0078C118.078 14.2188 118.051 14.457 118.027 14.7227C118.004 14.9805 117.988 15.2539 117.98 15.543C117.973 15.832 117.969 16.1172 117.969 16.3984C117.969 16.8594 117.965 17.2461 117.957 17.5586C117.957 17.8711 117.957 18.1875 117.957 18.5078C117.957 18.7031 117.945 18.8906 117.922 19.0703C117.898 19.25 117.844 19.4062 117.758 19.5391C117.68 19.6797 117.559 19.7891 117.395 19.8672C117.23 19.9531 117.012 19.9961 116.738 19.9961C116.699 19.9961 116.656 19.9961 116.609 19.9961C116.57 19.9961 116.531 19.9922 116.492 19.9844C116.445 19.9766 116.336 19.9414 116.164 19.8789C115.992 19.8164 115.812 19.7148 115.625 19.5742C115.438 19.4414 115.27 19.2734 115.121 19.0703C114.98 18.8672 114.91 18.6211 114.91 18.332C114.91 17.4258 114.961 16.543 115.062 15.6836C115.164 14.8164 115.254 14.0273 115.332 13.3164C115.34 13.2617 115.359 13.1094 115.391 12.8594C115.43 12.6094 115.477 12.2969 115.531 11.9219C115.586 11.5391 115.648 11.1133 115.719 10.6445C115.789 10.168 115.859 9.6875 115.93 9.20312C116 8.71094 116.066 8.23047 116.129 7.76172C116.199 7.28516 116.262 6.85547 116.316 6.47266C116.371 6.08984 116.414 5.77344 116.445 5.52344C116.477 5.26562 116.492 5.10938 116.492 5.05469C116.492 4.95312 116.477 4.85156 116.445 4.75C116.414 4.64062 116.379 4.53125 116.34 4.42188C116.301 4.3125 116.266 4.20312 116.234 4.09375C116.203 3.97656 116.188 3.85938 116.188 3.74219C116.188 3.59375 116.234 3.4375 116.328 3.27344C116.43 3.10938 116.551 2.96094 116.691 2.82812C116.84 2.6875 116.996 2.57422 117.16 2.48828C117.332 2.39453 117.488 2.34766 117.629 2.34766C117.949 2.34766 118.223 2.375 118.449 2.42969C118.676 2.48438 118.891 2.51172 119.094 2.51172C119.391 2.51172 119.746 2.47656 120.16 2.40625C120.582 2.33594 121.059 2.24609 121.59 2.13672C122.051 2.04297 122.512 1.95703 122.973 1.87891C123.434 1.79297 123.883 1.71875 124.32 1.65625C124.766 1.58594 125.191 1.53125 125.598 1.49219C126.004 1.45313 126.383 1.43359 126.734 1.43359C126.867 1.43359 127.027 1.46875 127.215 1.53906C127.402 1.60156 127.582 1.6875 127.754 1.79688C127.934 1.89844 128.082 2.01562 128.199 2.14844C128.324 2.28125 128.387 2.41016 128.387 2.53516C128.387 2.76953 128.32 3.01172 128.188 3.26172C128.062 3.51172 127.816 3.76172 127.449 4.01172L127.461 4ZM149.879 12.2852C149.879 12.6445 149.777 12.918 149.574 13.1055C149.371 13.2852 149.02 13.375 148.52 13.375C148.441 13.375 148.332 13.3594 148.191 13.3281C148.059 13.2969 147.918 13.2656 147.77 13.2344C147.621 13.1953 147.48 13.1602 147.348 13.1289C147.223 13.0977 147.133 13.082 147.078 13.082C147.031 13.082 146.965 13.0859 146.879 13.0938C146.793 13.1016 146.699 13.1094 146.598 13.1172C146.496 13.125 146.391 13.1328 146.281 13.1406C146.18 13.1484 146.09 13.1523 146.012 13.1523C145.91 13.1523 145.75 13.1445 145.531 13.1289C145.32 13.1133 145.098 13.0977 144.863 13.082C144.637 13.0664 144.418 13.0508 144.207 13.0352C144.004 13.0195 143.859 13.0117 143.773 13.0117C143.633 13.0117 143.418 13.0195 143.129 13.0352C142.84 13.0508 142.535 13.0664 142.215 13.082C141.895 13.0977 141.586 13.1133 141.289 13.1289C141 13.1445 140.781 13.1523 140.633 13.1523C140.383 13.1523 140.156 13.1406 139.953 13.1172C139.75 13.0859 139.574 13.0352 139.426 12.9648C139.277 12.8945 139.164 12.7969 139.086 12.6719C139.008 12.5391 138.969 12.3672 138.969 12.1562C138.969 11.9531 139.027 11.7812 139.145 11.6406C139.27 11.5 139.426 11.3828 139.613 11.2891C139.801 11.1953 140.008 11.1211 140.234 11.0664C140.461 11.0117 140.68 10.9727 140.891 10.9492C141.109 10.918 141.305 10.8984 141.477 10.8906C141.656 10.8828 141.785 10.8789 141.863 10.8789C141.957 10.8789 142.09 10.8945 142.262 10.9258C142.434 10.9492 142.586 10.9766 142.719 11.0078C143.258 11.0078 143.727 11.0039 144.125 10.9961C144.531 10.9883 144.887 10.9805 145.191 10.9727C145.496 10.957 145.762 10.9414 145.988 10.9258C146.215 10.9023 146.418 10.8789 146.598 10.8555C146.926 10.8086 147.273 10.7852 147.641 10.7852C147.75 10.7852 147.891 10.8086 148.062 10.8555C148.234 10.9023 148.41 10.9609 148.59 11.0312C148.77 11.0938 148.941 11.1641 149.105 11.2422C149.27 11.3125 149.395 11.375 149.48 11.4297C149.535 11.4609 149.586 11.5117 149.633 11.582C149.688 11.6445 149.73 11.7188 149.762 11.8047C149.801 11.8828 149.828 11.9648 149.844 12.0508C149.867 12.1367 149.879 12.2148 149.879 12.2852ZM183.113 18.2852C183.105 18.4883 183.039 18.6719 182.914 18.8359C182.789 19 182.613 19.1406 182.387 19.2578C182.23 19.3438 182.051 19.4102 181.848 19.457C181.652 19.5039 181.453 19.5273 181.25 19.5273C180.781 19.5273 180.32 19.4297 179.867 19.2344C179.414 19.0469 178.926 18.7773 178.402 18.4258C178.145 18.2539 177.816 18.0273 177.418 17.7461C177.02 17.457 176.562 17.1133 176.047 16.7148C175.922 16.6211 175.676 16.4336 175.309 16.1523C174.941 15.8633 174.453 15.4766 173.844 14.9922C173.281 14.5469 172.832 14.1992 172.496 13.9492C172.16 13.6914 171.969 13.5508 171.922 13.5273C171.828 13.4883 171.734 13.4688 171.641 13.4688C171.555 13.4609 171.391 13.457 171.148 13.457C171.094 13.457 171.039 13.457 170.984 13.457C170.93 13.457 170.863 13.4609 170.785 13.4688C170.715 13.4688 170.617 13.4727 170.492 13.4805C170.375 13.4883 170.215 13.5 170.012 13.5156C169.535 13.1797 169.297 12.7227 169.297 12.1445C169.297 11.8633 169.363 11.6328 169.496 11.4531C169.629 11.2734 169.82 11.1406 170.07 11.0547C170.133 11.0391 170.18 11.0273 170.211 11.0195C170.242 11.0117 170.273 11.0078 170.305 11.0078C170.344 11 170.395 10.9922 170.457 10.9844C170.52 10.9688 170.609 10.957 170.727 10.9492C170.953 10.9492 171.172 10.9219 171.383 10.8672C171.594 10.8125 171.797 10.7461 171.992 10.668C172.195 10.582 172.387 10.4922 172.566 10.3984C172.754 10.2969 172.934 10.2031 173.105 10.1172C173.355 9.99219 173.613 9.84766 173.879 9.68359C174.152 9.51953 174.426 9.34766 174.699 9.16797C174.941 9.00391 175.176 8.82422 175.402 8.62891C175.637 8.43359 175.867 8.22266 176.094 7.99609C176.273 7.81641 176.402 7.63672 176.48 7.45703C176.566 7.26953 176.609 7.08594 176.609 6.90625C176.609 6.63281 176.523 6.37109 176.352 6.12109C176.18 5.87109 175.961 5.64453 175.695 5.44141C175.438 5.23828 175.152 5.0625 174.84 4.91406C174.535 4.76562 174.246 4.65234 173.973 4.57422C173.434 4.41797 172.902 4.33984 172.379 4.33984C172.223 4.33984 172.027 4.34766 171.793 4.36328C171.559 4.37891 171.297 4.40234 171.008 4.43359C170.742 4.46484 170.48 4.49609 170.223 4.52734C169.973 4.55078 169.73 4.58203 169.496 4.62109C169.387 4.63672 169.301 4.64844 169.238 4.65625C169.176 4.66406 169.113 4.67578 169.051 4.69141C168.988 4.69922 168.914 4.71094 168.828 4.72656C168.75 4.74219 168.641 4.76562 168.5 4.79688C168.562 4.94531 168.617 5.10156 168.664 5.26562C168.711 5.42969 168.754 5.60938 168.793 5.80469C168.863 6.10938 168.906 6.39062 168.922 6.64844C168.945 6.89844 168.957 7.125 168.957 7.32812C168.957 7.5625 168.953 7.78516 168.945 7.99609C168.945 8.20703 168.938 8.41406 168.922 8.61719C168.898 9.03125 168.852 9.44531 168.781 9.85938C168.711 10.2656 168.617 10.793 168.5 11.4414C168.406 11.9961 168.328 12.4883 168.266 12.918C168.203 13.3398 168.152 13.7148 168.113 14.043C168.074 14.3555 168.043 14.6602 168.02 14.957C168.004 15.2539 167.996 15.5352 167.996 15.8008C167.996 16.043 168.008 16.2734 168.031 16.4922C168.055 16.7109 168.09 16.9258 168.137 17.1367C168.191 17.3398 168.262 17.543 168.348 17.7461C168.441 17.9492 168.555 18.1602 168.688 18.3789C168.609 18.5039 168.508 18.6211 168.383 18.7305C168.266 18.8398 168.137 18.9375 167.996 19.0234C167.863 19.1094 167.727 19.1758 167.586 19.2227C167.445 19.2773 167.312 19.3047 167.188 19.3047C166.555 19.3047 166.094 19.1719 165.805 18.9062C165.477 18.625 165.277 18.2969 165.207 17.9219C165.168 17.7344 165.141 17.5234 165.125 17.2891C165.117 17.0547 165.113 16.7891 165.113 16.4922C165.113 16.0625 165.137 15.6484 165.184 15.25C165.223 14.8984 165.266 14.5625 165.312 14.2422C165.367 13.9141 165.426 13.5898 165.488 13.2695C165.527 13.1289 165.559 12.9961 165.582 12.8711C165.605 12.7461 165.625 12.6172 165.641 12.4844C165.664 12.3438 165.688 12.1953 165.711 12.0391C165.734 11.875 165.762 11.6875 165.793 11.4766C165.895 10.8359 165.977 10.2188 166.039 9.625C166.102 9.03125 166.133 8.48828 166.133 7.99609C166.133 7.62109 166.121 7.23047 166.098 6.82422C166.082 6.41016 166.051 5.98047 166.004 5.53516C165.754 5.60547 165.543 5.66016 165.371 5.69922C165.199 5.73047 165.082 5.74609 165.02 5.74609C164.605 5.74609 164.328 5.64844 164.188 5.45312C164.055 5.25 163.988 4.96875 163.988 4.60938C163.988 4.20312 164.34 3.82812 165.043 3.48438C165.316 3.35156 165.59 3.23047 165.863 3.12109C166.145 3.01172 166.422 2.91406 166.695 2.82812C167 2.73438 167.363 2.64453 167.785 2.55859C168.207 2.47266 168.672 2.39062 169.18 2.3125C169.664 2.24219 170.125 2.1875 170.562 2.14844C171 2.10156 171.391 2.07812 171.734 2.07812C172.922 2.07812 174.066 2.21875 175.168 2.5C175.746 2.64844 176.277 2.84766 176.762 3.09766C177.246 3.34766 177.68 3.64844 178.062 4C178.906 4.75781 179.328 5.73828 179.328 6.94141C179.328 7.72266 179.027 8.49219 178.426 9.25C177.918 9.875 177.336 10.4219 176.68 10.8906C176.023 11.3516 175.301 11.7969 174.512 12.2266C174.762 12.4062 175.012 12.5859 175.262 12.7656C175.512 12.9453 175.781 13.1328 176.07 13.3281C176.5 13.625 176.898 13.9062 177.266 14.1719C177.641 14.4375 177.992 14.6836 178.32 14.9102C178.648 15.1367 179.008 15.3867 179.398 15.6602C179.797 15.9336 180.234 16.2344 180.711 16.5625C181.164 16.8672 181.578 17.1445 181.953 17.3945C182.336 17.6367 182.652 17.8359 182.902 17.9922L183.113 18.2852ZM197.422 4.12891C196.875 4.13672 196.266 4.15625 195.594 4.1875C194.922 4.21875 194.234 4.26562 193.531 4.32812C192.828 4.38281 192.133 4.45703 191.445 4.55078C190.758 4.63672 190.117 4.74609 189.523 4.87891C189.445 4.89453 189.383 4.94531 189.336 5.03125C189.297 5.11719 189.266 5.21875 189.242 5.33594C189.227 5.45312 189.211 5.57812 189.195 5.71094C189.188 5.83594 189.176 5.94922 189.16 6.05078C189.113 6.32422 189.051 6.62109 188.973 6.94141C188.902 7.25391 188.828 7.57812 188.75 7.91406C188.68 8.25 188.609 8.58594 188.539 8.92188C188.469 9.25781 188.418 9.58594 188.387 9.90625C188.676 9.90625 189.016 9.89062 189.406 9.85938C189.805 9.82812 190.203 9.79297 190.602 9.75391C191 9.70703 191.371 9.66016 191.715 9.61328C192.066 9.55859 192.34 9.50781 192.535 9.46094C193.082 9.32812 193.578 9.22656 194.023 9.15625C194.477 9.08594 194.852 9.05078 195.148 9.05078C195.414 9.05078 195.66 9.07031 195.887 9.10938C196.113 9.14062 196.309 9.19922 196.473 9.28516C196.637 9.37109 196.766 9.48438 196.859 9.625C196.953 9.76562 197 9.94141 197 10.1523C197 10.5508 196.914 10.8477 196.742 11.043C196.57 11.2383 196.324 11.3867 196.004 11.4883C195.691 11.582 195.309 11.6523 194.855 11.6992C194.41 11.7461 193.906 11.8164 193.344 11.9102C193.047 11.957 192.676 12.0078 192.23 12.0625C191.785 12.1094 191.324 12.1641 190.848 12.2266C190.371 12.2812 189.914 12.3438 189.477 12.4141C189.039 12.4766 188.68 12.5508 188.398 12.6367H188.387C188.277 12.668 188.191 12.7305 188.129 12.8242C188.074 12.9102 188.023 13.0664 187.977 13.293C187.922 13.5508 187.867 13.8359 187.812 14.1484C187.758 14.4609 187.707 14.7656 187.66 15.0625C187.621 15.3594 187.586 15.6367 187.555 15.8945C187.531 16.1445 187.52 16.3398 187.52 16.4805C187.559 16.6836 187.629 16.8086 187.73 16.8555C187.84 16.8945 187.949 16.9141 188.059 16.9141C188.191 16.9141 188.434 16.8984 188.785 16.8672C189.145 16.8281 189.559 16.7812 190.027 16.7266C190.496 16.6641 190.992 16.5977 191.516 16.5273C192.039 16.457 192.535 16.3867 193.004 16.3164C193.48 16.2461 193.902 16.1836 194.27 16.1289C194.637 16.0742 194.895 16.0312 195.043 16C195.559 15.8906 196.008 15.8086 196.391 15.7539C196.781 15.6914 197.031 15.6602 197.141 15.6602C197.609 15.7227 197.973 15.875 198.23 16.1172C198.496 16.3516 198.629 16.6602 198.629 17.043C198.629 17.1992 198.602 17.3477 198.547 17.4883C198.5 17.6289 198.41 17.7539 198.277 17.8633C197.754 18.0898 197.211 18.25 196.648 18.3438C196.094 18.4297 195.555 18.4883 195.031 18.5195C194.68 18.543 194.281 18.5781 193.836 18.625C193.398 18.6641 192.953 18.7148 192.5 18.7773C192.047 18.832 191.609 18.8867 191.188 18.9414C190.773 18.9961 190.406 19.0469 190.086 19.0938C189.828 19.1484 189.539 19.1992 189.219 19.2461C188.906 19.3008 188.578 19.3477 188.234 19.3867C187.898 19.4336 187.559 19.4688 187.215 19.4922C186.879 19.5156 186.555 19.5273 186.242 19.5273C186 19.5273 185.77 19.5039 185.551 19.457C185.34 19.418 185.148 19.3359 184.977 19.2109C184.812 19.0938 184.676 18.9258 184.566 18.707C184.465 18.4883 184.398 18.207 184.367 17.8633L184.332 17.4766C184.332 17.3984 184.348 17.3047 184.379 17.1953C184.418 17.0859 184.465 16.9414 184.52 16.7617C184.582 16.582 184.648 16.3594 184.719 16.0938C184.789 15.8281 184.863 15.5078 184.941 15.1328C185.02 14.7344 185.094 14.3203 185.164 13.8906C185.234 13.4531 185.301 13.0156 185.363 12.5781C185.426 12.1406 185.484 11.7148 185.539 11.3008C185.602 10.8789 185.656 10.4844 185.703 10.1172C185.82 9.25781 185.918 8.54297 185.996 7.97266C186.082 7.39453 186.152 6.91406 186.207 6.53125C186.262 6.14062 186.301 5.81641 186.324 5.55859C186.348 5.30078 186.359 5.05469 186.359 4.82031C186.359 4.8125 186.332 4.78516 186.277 4.73828C186.23 4.68359 186.156 4.55469 186.055 4.35156C185.945 4.13281 185.879 3.96484 185.855 3.84766C185.832 3.72266 185.82 3.60547 185.82 3.49609C185.82 3.43359 185.82 3.37891 185.82 3.33203C185.828 3.28516 185.844 3.22656 185.867 3.15625C185.883 3.07031 185.938 2.98438 186.031 2.89844C186.125 2.8125 186.234 2.73438 186.359 2.66406C186.492 2.59375 186.633 2.53516 186.781 2.48828C186.938 2.44141 187.086 2.41797 187.227 2.41797C187.391 2.42578 187.52 2.43359 187.613 2.44141C187.707 2.44141 187.785 2.44531 187.848 2.45312C187.918 2.45312 187.984 2.45703 188.047 2.46484C188.117 2.46484 188.215 2.47266 188.34 2.48828C188.559 2.48828 188.91 2.46484 189.395 2.41797C189.887 2.37109 190.434 2.3125 191.035 2.24219C191.637 2.17188 192.258 2.09766 192.898 2.01953C193.539 1.93359 194.125 1.85547 194.656 1.78516C195.195 1.71484 195.637 1.66016 195.98 1.62109C196.332 1.57422 196.516 1.55078 196.531 1.55078C196.57 1.54297 196.625 1.53906 196.695 1.53906C196.766 1.53906 196.832 1.53906 196.895 1.53906C197.34 1.53906 197.691 1.58203 197.949 1.66797C198.207 1.74609 198.398 1.85156 198.523 1.98438C198.648 2.11719 198.727 2.26562 198.758 2.42969C198.789 2.58594 198.805 2.74219 198.805 2.89844C198.805 3 198.766 3.11719 198.688 3.25C198.609 3.38281 198.512 3.50781 198.395 3.625C198.285 3.74219 198.164 3.84766 198.031 3.94141C197.906 4.02734 197.793 4.08203 197.691 4.10547L197.422 4.12891ZM208.953 12.2969C209.211 12.2578 209.488 12.2188 209.785 12.1797C210.082 12.1406 210.371 12.0977 210.652 12.0508C210.934 12.0039 211.195 11.957 211.438 11.9102C211.68 11.8555 211.883 11.8008 212.047 11.7461C212.016 11.6055 211.98 11.4531 211.941 11.2891C211.902 11.1172 211.863 10.9492 211.824 10.7852C211.785 10.6133 211.746 10.4531 211.707 10.3047C211.676 10.1484 211.648 10.0156 211.625 9.90625C211.484 9.17188 211.352 8.37109 211.227 7.50391C211.102 6.63672 211.008 5.78125 210.945 4.9375C210.797 5.17188 210.641 5.43359 210.477 5.72266C210.32 6.01172 210.16 6.30469 209.996 6.60156C209.832 6.89062 209.668 7.17969 209.504 7.46875C209.34 7.75 209.184 8.00391 209.035 8.23047C208.824 8.55078 208.598 8.89062 208.355 9.25C208.121 9.60156 207.883 9.96484 207.641 10.3398C207.406 10.707 207.172 11.0742 206.938 11.4414C206.711 11.8086 206.5 12.168 206.305 12.5195C206.734 12.4961 207.172 12.4648 207.617 12.4258C208.062 12.3867 208.512 12.3438 208.965 12.2969H208.953ZM218.844 17.8047C218.844 17.9844 218.809 18.1641 218.738 18.3438C218.668 18.5156 218.566 18.6719 218.434 18.8125C218.309 18.9531 218.16 19.0664 217.988 19.1523C217.816 19.2383 217.629 19.2812 217.426 19.2812C217.129 19.2812 216.832 19.1836 216.535 18.9883C216.238 18.793 215.945 18.5391 215.656 18.2266C215.367 17.9062 215.086 17.5508 214.812 17.1602C214.547 16.7695 214.293 16.3789 214.051 15.9883C213.809 15.5977 213.586 15.2305 213.383 14.8867C213.18 14.5352 213.004 14.2461 212.855 14.0195C212.605 14.0352 212.25 14.0703 211.789 14.125C211.328 14.1797 210.82 14.2461 210.266 14.3242C209.711 14.3945 209.133 14.4727 208.531 14.5586C207.938 14.6367 207.375 14.7188 206.844 14.8047C206.312 14.8828 205.84 14.957 205.426 15.0273C205.02 15.0977 204.73 15.1562 204.559 15.2031C204.223 15.6328 203.879 16.0859 203.527 16.5625C203.176 17.0312 202.812 17.5195 202.438 18.0273C202.344 18.168 202.238 18.3125 202.121 18.4609C202.004 18.6094 201.871 18.7461 201.723 18.8711C201.574 18.9883 201.406 19.0859 201.219 19.1641C201.039 19.2422 200.836 19.2812 200.609 19.2812C200.477 19.2812 200.324 19.2305 200.152 19.1289C199.988 19.0352 199.832 18.918 199.684 18.7773C199.543 18.6367 199.422 18.4883 199.32 18.332C199.219 18.168 199.168 18.0234 199.168 17.8984C199.168 17.8125 199.234 17.6484 199.367 17.4062C199.5 17.1562 199.668 16.8906 199.871 16.6094C199.887 16.5859 199.973 16.4766 200.129 16.2812C200.285 16.0781 200.477 15.8281 200.703 15.5312C200.938 15.2344 201.188 14.9141 201.453 14.5703C201.719 14.2266 201.969 13.9062 202.203 13.6094C202.438 13.3125 202.633 13.0625 202.789 12.8594C202.953 12.6484 203.047 12.5312 203.07 12.5078C203.75 11.6484 204.41 10.7461 205.051 9.80078C205.691 8.84766 206.312 7.90625 206.914 6.97656C207.023 6.80469 207.125 6.64844 207.219 6.50781C207.312 6.36719 207.41 6.22656 207.512 6.08594C207.613 5.94531 207.719 5.79688 207.828 5.64062C207.945 5.48438 208.078 5.30469 208.227 5.10156C208.5 4.73438 208.766 4.35547 209.023 3.96484C209.281 3.57422 209.512 3.15625 209.715 2.71094C209.895 2.3125 210.141 2.01172 210.453 1.80859C210.766 1.59766 211.168 1.49219 211.66 1.49219C211.895 1.49219 212.094 1.58984 212.258 1.78516C212.422 1.98047 212.566 2.24219 212.691 2.57031C212.816 2.89844 212.926 3.28125 213.02 3.71875C213.113 4.14844 213.203 4.60547 213.289 5.08984C213.375 5.56641 213.461 6.05469 213.547 6.55469C213.641 7.05469 213.746 7.53516 213.863 7.99609C213.996 8.51953 214.141 9.05078 214.297 9.58984C214.461 10.1289 214.641 10.6328 214.836 11.1016C215.188 11.0391 215.48 10.9844 215.715 10.9375C215.949 10.8828 216.164 10.8555 216.359 10.8555C216.68 10.8555 216.934 10.8633 217.121 10.8789C217.309 10.8945 217.453 10.9336 217.555 10.9961C217.664 11.0508 217.734 11.1367 217.766 11.2539C217.797 11.3633 217.812 11.5117 217.812 11.6992C217.812 11.9102 217.75 12.0977 217.625 12.2617C217.508 12.4258 217.348 12.5703 217.145 12.6953C216.949 12.8203 216.727 12.9258 216.477 13.0117C216.227 13.0977 215.973 13.168 215.715 13.2227C215.785 13.3633 215.844 13.4883 215.891 13.5977C215.945 13.6992 215.996 13.8008 216.043 13.9023C216.09 13.9961 216.137 14.0938 216.184 14.1953C216.23 14.2969 216.289 14.4102 216.359 14.5352C216.516 14.8164 216.68 15.0938 216.852 15.3672C217.031 15.6328 217.211 15.8672 217.391 16.0703C217.438 16.1172 217.504 16.1836 217.59 16.2695C217.684 16.3555 217.781 16.4531 217.883 16.5625C217.992 16.6719 218.102 16.7891 218.211 16.9141C218.328 17.0312 218.434 17.1484 218.527 17.2656C218.621 17.375 218.695 17.4805 218.75 17.582C218.812 17.6758 218.844 17.75 218.844 17.8047ZM235.438 14.7344C235.438 15.2344 235.312 15.6289 235.062 15.918C234.812 16.1992 234.395 16.3398 233.809 16.3398C233.762 16.3398 233.691 16.3398 233.598 16.3398C233.512 16.3398 233.422 16.3438 233.328 16.3516C233.234 16.3516 233.148 16.3516 233.07 16.3516C233 16.3516 232.957 16.3516 232.941 16.3516C232.84 16.3516 232.695 16.3672 232.508 16.3984C232.32 16.4219 232.117 16.4531 231.898 16.4922C231.688 16.5234 231.469 16.5625 231.242 16.6094C231.023 16.6484 230.824 16.6836 230.645 16.7148C229.77 16.8711 228.934 17.0117 228.137 17.1367C227.34 17.2617 226.609 17.3906 225.945 17.5234C225.289 17.6562 224.711 17.8047 224.211 17.9688C223.711 18.125 223.32 18.3164 223.039 18.543C222.992 18.5352 222.93 18.5273 222.852 18.5195C222.781 18.5117 222.719 18.5039 222.664 18.4961C222.469 18.457 222.27 18.418 222.066 18.3789C221.871 18.332 221.691 18.2695 221.527 18.1914C221.363 18.1055 221.23 17.9922 221.129 17.8516C221.027 17.7109 220.977 17.5234 220.977 17.2891C220.977 16.9375 220.992 16.6172 221.023 16.3281C221.062 16.0391 221.098 15.7578 221.129 15.4844C221.184 15.2031 221.238 14.8477 221.293 14.418C221.355 13.9883 221.414 13.5273 221.469 13.0352C221.523 12.543 221.574 12.0391 221.621 11.5234C221.676 11 221.723 10.5078 221.762 10.0469C221.801 9.58594 221.832 9.17969 221.855 8.82812C221.887 8.46875 221.91 8.20312 221.926 8.03125C221.973 7.44531 222 6.87109 222.008 6.30859C222.023 5.73828 222.031 5.16406 222.031 4.58594C222.031 4.48438 222.031 4.34766 222.031 4.17578C222.039 4.00391 222.051 3.82422 222.066 3.63672C222.082 3.44922 222.109 3.26562 222.148 3.08594C222.195 2.90625 222.254 2.75781 222.324 2.64062C222.418 2.49219 222.543 2.36719 222.699 2.26562C222.855 2.15625 223.023 2.07031 223.203 2.00781C223.383 1.9375 223.566 1.88672 223.754 1.85547C223.949 1.82422 224.133 1.80859 224.305 1.80859C224.477 1.80859 224.629 1.86328 224.762 1.97266C224.895 2.07422 225.004 2.20312 225.09 2.35938C225.184 2.51562 225.254 2.68359 225.301 2.86328C225.348 3.04297 225.371 3.21094 225.371 3.36719C225.371 3.61719 225.336 3.86719 225.266 4.11719C225.195 4.36719 225.082 4.625 224.926 4.89062C224.918 4.98438 224.902 5.17188 224.879 5.45312C224.855 5.72656 224.824 6.04688 224.785 6.41406C224.754 6.77344 224.719 7.15625 224.68 7.5625C224.641 7.96094 224.602 8.33984 224.562 8.69922C224.531 9.05078 224.5 9.35547 224.469 9.61328C224.445 9.87109 224.43 10.0352 224.422 10.1055C224.383 10.4727 224.34 10.8945 224.293 11.3711C224.246 11.8477 224.195 12.332 224.141 12.8242C224.094 13.3164 224.039 13.7969 223.977 14.2656C223.914 14.7266 223.844 15.1289 223.766 15.4727C224.039 15.4492 224.332 15.4102 224.645 15.3555C224.957 15.293 225.27 15.2266 225.582 15.1562C225.895 15.0859 226.195 15.0195 226.484 14.957C226.781 14.8867 227.047 14.8359 227.281 14.8047C227.312 14.7969 227.449 14.7695 227.691 14.7227C227.934 14.6758 228.23 14.6172 228.582 14.5469C228.934 14.4766 229.309 14.3984 229.707 14.3125C230.113 14.2266 230.488 14.1484 230.832 14.0781C231.176 14.0078 231.465 13.9492 231.699 13.9023C231.941 13.8477 232.07 13.8203 232.086 13.8203C232.461 13.7344 232.809 13.6719 233.129 13.6328C233.457 13.5859 233.758 13.5625 234.031 13.5625C234.477 13.5625 234.82 13.6641 235.062 13.8672C235.312 14.0703 235.438 14.3594 235.438 14.7344ZM242.141 4.05859C242.141 4.16797 242.117 4.36328 242.07 4.64453C242.031 4.91797 241.926 5.26172 241.754 5.67578C241.621 6.01172 241.516 6.29688 241.438 6.53125C241.359 6.76562 241.312 6.94141 241.297 7.05859C241.156 7.94922 241.02 8.90625 240.887 9.92969C240.762 10.9531 240.621 12.0625 240.465 13.2578C240.426 13.5859 240.383 13.9297 240.336 14.2891C240.297 14.6406 240.262 14.9727 240.23 15.2852C240.199 15.5977 240.172 15.875 240.148 16.1172C240.133 16.3516 240.125 16.5117 240.125 16.5977C240.125 16.6602 240.141 16.7383 240.172 16.832C240.203 16.918 240.238 17.0078 240.277 17.1016C240.316 17.1953 240.352 17.2852 240.383 17.3711C240.414 17.457 240.43 17.5312 240.43 17.5938C240.43 17.7734 240.375 17.9531 240.266 18.1328C240.156 18.3125 239.977 18.4883 239.727 18.6602C239.523 18.8086 239.32 18.9219 239.117 19C238.914 19.0703 238.711 19.1133 238.508 19.1289C238.133 19.1289 237.84 19.0352 237.629 18.8477C237.426 18.6602 237.273 18.4375 237.172 18.1797C237.078 17.9219 237.023 17.6523 237.008 17.3711C236.992 17.0898 236.984 16.8555 236.984 16.668C236.984 16.293 236.992 15.9375 237.008 15.6016C237.031 15.2578 237.062 14.9219 237.102 14.5938C237.164 14.0625 237.254 13.4414 237.371 12.7305C237.488 12.0195 237.613 11.2656 237.746 10.4688C237.77 10.3438 237.805 10.1445 237.852 9.87109C237.906 9.59766 237.965 9.28516 238.027 8.93359C238.098 8.57422 238.168 8.19922 238.238 7.80859C238.316 7.41016 238.391 7.03125 238.461 6.67188C238.531 6.3125 238.594 5.99219 238.648 5.71094C238.703 5.42188 238.742 5.20703 238.766 5.06641C238.812 4.80859 238.848 4.60938 238.871 4.46875C238.895 4.32812 238.918 4.19922 238.941 4.08203C238.965 3.95703 238.992 3.82031 239.023 3.67188C239.055 3.52344 239.098 3.31641 239.152 3.05078L239.141 3.07422C239.156 2.94922 239.203 2.8125 239.281 2.66406C239.359 2.50781 239.453 2.36328 239.562 2.23047C239.68 2.08984 239.809 1.97656 239.949 1.89062C240.098 1.79688 240.242 1.75 240.383 1.75C240.711 1.75 240.988 1.82813 241.215 1.98438C241.441 2.13281 241.621 2.31641 241.754 2.53516C241.895 2.75391 241.992 2.98828 242.047 3.23828C242.109 3.48047 242.141 3.69531 242.141 3.88281V4.05859ZM256.836 14.4531C256.93 14.4375 257.078 14.418 257.281 14.3945C257.484 14.3711 257.699 14.3516 257.926 14.3359C258.16 14.3125 258.383 14.293 258.594 14.2773C258.812 14.2617 258.977 14.2539 259.086 14.2539C259.195 14.2539 259.332 14.2617 259.496 14.2773C259.668 14.2852 259.84 14.2969 260.012 14.3125C260.191 14.3281 260.363 14.3516 260.527 14.3828C260.691 14.4062 260.832 14.4375 260.949 14.4766C261.215 14.5391 261.426 14.6133 261.582 14.6992C261.746 14.7852 261.871 14.8867 261.957 15.0039C262.051 15.1133 262.109 15.2383 262.133 15.3789C262.164 15.5117 262.18 15.6562 262.18 15.8125C262.18 16.2969 262.008 16.6602 261.664 16.9023C261.32 17.1445 260.859 17.2656 260.281 17.2656C260.141 17.2656 259.973 17.2539 259.777 17.2305C259.582 17.207 259.371 17.1836 259.145 17.1602C258.918 17.1289 258.676 17.1016 258.418 17.0781C258.168 17.0547 257.918 17.043 257.668 17.043C257.441 17.043 257.121 17.0586 256.707 17.0898C256.293 17.1211 255.824 17.1641 255.301 17.2188C254.777 17.2656 254.211 17.3281 253.602 17.4062C252.992 17.4766 252.371 17.5586 251.738 17.6523C251.113 17.7383 250.492 17.8281 249.875 17.9219C249.266 18.0156 248.691 18.1133 248.152 18.2148C247.996 18.2461 247.801 18.3398 247.566 18.4961C247.34 18.6445 247.102 18.8047 246.852 18.9766C246.602 19.1484 246.355 19.3047 246.113 19.4453C245.879 19.5859 245.68 19.6562 245.516 19.6562C245.266 19.6562 245.055 19.6211 244.883 19.5508C244.719 19.4805 244.586 19.3828 244.484 19.2578C244.383 19.1406 244.309 19.0039 244.262 18.8477C244.223 18.6836 244.203 18.5156 244.203 18.3438C244.203 18.0469 244.285 17.7617 244.449 17.4883C244.613 17.207 244.812 16.9453 245.047 16.7031C245.289 16.4531 245.543 16.2266 245.809 16.0234C246.074 15.8125 246.305 15.6328 246.5 15.4844C246.602 15.3984 246.695 15.3203 246.781 15.25C246.867 15.1719 246.949 15.0938 247.027 15.0156C247.113 14.9375 247.203 14.8555 247.297 14.7695C247.391 14.6758 247.5 14.5703 247.625 14.4531C247.984 14.1094 248.398 13.6992 248.867 13.2227C249.344 12.7461 249.844 12.2383 250.367 11.6992C250.898 11.1523 251.434 10.5898 251.973 10.0117C252.512 9.42578 253.027 8.85156 253.52 8.28906C254.012 7.72656 254.461 7.19141 254.867 6.68359C255.281 6.17578 255.617 5.72266 255.875 5.32422C255.586 5.32422 255.242 5.34375 254.844 5.38281C254.453 5.42188 254.031 5.47266 253.578 5.53516C253.133 5.58984 252.668 5.65234 252.184 5.72266C251.699 5.79297 251.215 5.85938 250.73 5.92188C250.254 5.97656 249.785 6.02344 249.324 6.0625C248.871 6.10156 248.449 6.12109 248.059 6.12109C247.488 6.12109 246.984 6.09375 246.547 6.03906C246.117 5.98438 245.734 5.90234 245.398 5.79297C245.062 5.67578 244.77 5.52734 244.52 5.34766C244.27 5.16797 244.039 4.95703 243.828 4.71484C243.711 4.57422 243.621 4.42188 243.559 4.25781C243.496 4.09375 243.465 3.9375 243.465 3.78906C243.465 3.57031 243.508 3.40234 243.594 3.28516C243.688 3.16016 243.801 3.07031 243.934 3.01562C244.074 2.95312 244.227 2.91406 244.391 2.89844C244.555 2.88281 244.711 2.875 244.859 2.875C245.148 2.875 245.41 2.90625 245.645 2.96875C245.879 3.03125 246.117 3.10156 246.359 3.17969C246.602 3.25781 246.855 3.32812 247.121 3.39062C247.395 3.45312 247.707 3.48438 248.059 3.48438C248.105 3.48438 248.148 3.48438 248.188 3.48438C248.227 3.48438 248.312 3.48438 248.445 3.48438C248.586 3.48438 248.797 3.48438 249.078 3.48438C249.367 3.47656 249.785 3.47266 250.332 3.47266C250.48 3.47266 250.613 3.47266 250.73 3.47266C250.848 3.46484 250.941 3.45703 251.012 3.44922L257.398 2.78125C257.438 2.78125 257.523 2.75 257.656 2.6875C257.789 2.625 257.941 2.55469 258.113 2.47656C258.293 2.39844 258.477 2.32812 258.664 2.26562C258.852 2.20312 259.02 2.17188 259.168 2.17188C259.41 2.17188 259.605 2.22656 259.754 2.33594C259.91 2.44531 260.031 2.58203 260.117 2.74609C260.203 2.90234 260.262 3.06641 260.293 3.23828C260.324 3.41016 260.34 3.55469 260.34 3.67188C260.34 3.78906 260.23 4.01562 260.012 4.35156C259.801 4.6875 259.508 5.09375 259.133 5.57031C258.766 6.04688 258.336 6.58203 257.844 7.17578C257.359 7.76953 256.844 8.38672 256.297 9.02734C255.75 9.66016 255.188 10.3008 254.609 10.9492C254.039 11.5977 253.484 12.2188 252.945 12.8125C252.414 13.4062 251.914 13.957 251.445 14.4648C250.984 14.9727 250.59 15.4023 250.262 15.7539C250.48 15.7148 250.727 15.668 251 15.6133C251.281 15.5586 251.547 15.5078 251.797 15.4609C252.055 15.4062 252.277 15.3594 252.465 15.3203C252.652 15.2812 252.766 15.2578 252.805 15.25L256.836 14.4531ZM272.164 12.2383C272.32 12.1992 272.5 12.1641 272.703 12.1328C272.906 12.0938 273.117 12.0547 273.336 12.0156C273.555 11.9766 273.773 11.9375 273.992 11.8984C274.211 11.8594 274.406 11.8242 274.578 11.793C274.43 11.4336 274.277 11.043 274.121 10.6211C273.973 10.1914 273.828 9.76172 273.688 9.33203C273.547 8.90234 273.414 8.48828 273.289 8.08984C273.164 7.69141 273.051 7.33594 272.949 7.02344C272.855 6.71094 272.777 6.45703 272.715 6.26172C272.66 6.06641 272.625 5.96484 272.609 5.95703C272.484 6.19141 272.34 6.45703 272.176 6.75391C272.012 7.05078 271.844 7.35547 271.672 7.66797C271.508 7.97266 271.34 8.27344 271.168 8.57031C271.004 8.86719 270.855 9.12891 270.723 9.35547C270.59 9.58203 270.43 9.83594 270.242 10.1172C270.062 10.3984 269.875 10.6875 269.68 10.9844C269.484 11.2812 269.289 11.5781 269.094 11.875C268.906 12.1641 268.742 12.4336 268.602 12.6836C269.047 12.6836 269.422 12.6758 269.727 12.6602C270.039 12.6367 270.324 12.6055 270.582 12.5664C270.84 12.5273 271.09 12.4805 271.332 12.4258C271.574 12.3711 271.852 12.3086 272.164 12.2383ZM267.992 15.25C267.82 15.25 267.621 15.2539 267.395 15.2617C267.168 15.2695 267 15.2734 266.891 15.2734C266.859 15.2734 266.785 15.3789 266.668 15.5898C266.559 15.793 266.379 16.1172 266.129 16.5625C265.934 16.9141 265.734 17.2617 265.531 17.6055C265.336 17.9414 265.133 18.2461 264.922 18.5195C264.711 18.7852 264.496 19 264.277 19.1641C264.059 19.3359 263.832 19.4219 263.598 19.4219C263.457 19.4219 263.301 19.3789 263.129 19.293C262.965 19.2148 262.809 19.1094 262.66 18.9766C262.52 18.8438 262.398 18.6953 262.297 18.5312C262.203 18.3594 262.156 18.1875 262.156 18.0156C262.156 17.8516 262.223 17.6328 262.355 17.3594C262.488 17.0781 262.672 16.7539 262.906 16.3867C263.141 16.0195 263.414 15.6133 263.727 15.168C264.047 14.7148 264.387 14.2344 264.746 13.7266C265.082 13.2578 265.43 12.7695 265.789 12.2617C266.156 11.7461 266.527 11.207 266.902 10.6445C267.191 10.1992 267.512 9.67969 267.863 9.08594C268.223 8.48438 268.594 7.86328 268.977 7.22266C269.367 6.58203 269.762 5.95312 270.16 5.33594C270.559 4.71094 270.938 4.15234 271.297 3.66016C271.664 3.16797 272.004 2.77344 272.316 2.47656C272.637 2.17188 272.91 2.01953 273.137 2.01953C273.41 2.01953 273.648 2.05078 273.852 2.11328C274.062 2.16797 274.273 2.28516 274.484 2.46484C274.562 2.52734 274.605 2.61719 274.613 2.73438C274.629 2.84375 274.637 2.98438 274.637 3.15625C274.637 3.28125 274.621 3.40625 274.59 3.53125C274.566 3.65625 274.535 3.77344 274.496 3.88281C274.559 4.05469 274.637 4.25391 274.73 4.48047C274.824 4.69922 274.922 4.92969 275.023 5.17188C275.125 5.41406 275.227 5.65625 275.328 5.89844C275.43 6.13281 275.52 6.34766 275.598 6.54297L278.117 12.6719C278.234 12.9688 278.375 13.2969 278.539 13.6562C278.703 14.0156 278.871 14.3672 279.043 14.7109C279.223 15.0469 279.398 15.3594 279.57 15.6484C279.742 15.9297 279.891 16.1445 280.016 16.293C280.227 16.5352 280.43 16.7578 280.625 16.9609C280.828 17.1562 281.008 17.3438 281.164 17.5234C281.32 17.6953 281.445 17.8711 281.539 18.0508C281.633 18.2227 281.68 18.4062 281.68 18.6016C281.68 18.8359 281.637 19.0391 281.551 19.2109C281.473 19.3828 281.359 19.5234 281.211 19.6328C281.07 19.7422 280.906 19.8242 280.719 19.8789C280.531 19.9336 280.332 19.9609 280.121 19.9609C279.738 19.9609 279.375 19.8398 279.031 19.5977C278.695 19.3633 278.383 19.0703 278.094 18.7188C277.805 18.3594 277.539 17.9727 277.297 17.5586C277.055 17.1445 276.836 16.7656 276.641 16.4219C276.547 16.25 276.445 16.0625 276.336 15.8594C276.234 15.6484 276.137 15.4414 276.043 15.2383C275.957 15.0352 275.879 14.8477 275.809 14.6758C275.738 14.5039 275.691 14.3711 275.668 14.2773C275.652 14.2305 275.617 14.1992 275.562 14.1836C275.516 14.1602 275.473 14.1484 275.434 14.1484C275.324 14.1484 275.164 14.1641 274.953 14.1953C274.742 14.2266 274.504 14.2695 274.238 14.3242C273.98 14.3711 273.703 14.4297 273.406 14.5C273.117 14.5625 272.832 14.625 272.551 14.6875C272.27 14.75 272.004 14.8086 271.754 14.8633C271.504 14.918 271.293 14.9609 271.121 14.9922C271.035 15.0078 270.91 15.0273 270.746 15.0508C270.582 15.0664 270.398 15.082 270.195 15.0977C269.992 15.1133 269.777 15.1328 269.551 15.1562C269.332 15.1719 269.121 15.1875 268.918 15.2031C268.715 15.2109 268.531 15.2227 268.367 15.2383C268.203 15.2461 268.078 15.25 267.992 15.25ZM303.453 3.22656C303.398 3.39844 303.324 3.53125 303.23 3.625C303.145 3.71875 303.051 3.80469 302.949 3.88281C302.887 3.92969 302.828 4.03125 302.773 4.1875C302.719 4.34375 302.664 4.51562 302.609 4.70312C302.484 5.125 302.355 5.64062 302.223 6.25C302.098 6.85156 301.973 7.49609 301.848 8.18359C301.723 8.87109 301.605 9.57422 301.496 10.293C301.387 11.0117 301.289 11.6914 301.203 12.332C301.117 12.9727 301.051 13.5508 301.004 14.0664C300.957 14.5742 300.934 14.9688 300.934 15.25C300.934 15.625 300.961 16.0234 301.016 16.4453C301.078 16.8672 301.109 17.3242 301.109 17.8164C301.109 18.043 301.086 18.2773 301.039 18.5195C300.992 18.7539 300.902 19.0156 300.77 19.3047C300.738 19.3906 300.676 19.457 300.582 19.5039C300.488 19.5508 300.375 19.5859 300.242 19.6094C300.117 19.6328 299.98 19.6484 299.832 19.6562C299.684 19.6641 299.535 19.668 299.387 19.668C299.09 19.668 298.844 19.6133 298.648 19.5039C298.461 19.4023 298.309 19.25 298.191 19.0469C298.082 18.8438 298.004 18.6016 297.957 18.3203C297.918 18.0391 297.898 17.7227 297.898 17.3711C297.898 16.9883 297.926 16.5547 297.98 16.0703C298.035 15.5859 298.105 15.0703 298.191 14.5234C298.285 13.9766 298.391 13.4141 298.508 12.8359C298.625 12.25 298.746 11.6641 298.871 11.0781C298.996 10.4922 299.117 9.91797 299.234 9.35547C299.359 8.79297 299.473 8.26172 299.574 7.76172C299.285 8.10547 298.977 8.46875 298.648 8.85156C298.32 9.22656 297.992 9.60547 297.664 9.98828C297.344 10.3633 297.027 10.7266 296.715 11.0781C296.402 11.4297 296.113 11.7539 295.848 12.0508C295.582 12.3398 295.348 12.5859 295.145 12.7891C294.941 12.9922 294.785 13.1367 294.676 13.2227C294.402 13.4258 294.18 13.668 294.008 13.9492C293.844 14.2305 293.703 14.4922 293.586 14.7344C293.5 14.9141 293.41 15.0781 293.316 15.2266C293.23 15.375 293.129 15.5039 293.012 15.6133C292.895 15.7227 292.758 15.8086 292.602 15.8711C292.453 15.9336 292.266 15.9648 292.039 15.9648C291.977 15.9648 291.859 15.9609 291.688 15.9531C291.523 15.9453 291.352 15.9258 291.172 15.8945C291 15.8555 290.84 15.7969 290.691 15.7188C290.543 15.6406 290.453 15.5312 290.422 15.3906C290.352 15.0547 290.258 14.6562 290.141 14.1953C290.023 13.7344 289.887 13.2422 289.73 12.7188C289.582 12.1875 289.422 11.6406 289.25 11.0781C289.078 10.5156 288.902 9.97266 288.723 9.44922C288.551 8.91797 288.383 8.41797 288.219 7.94922C288.055 7.47266 287.906 7.0625 287.773 6.71875C287.633 7.25 287.492 7.81641 287.352 8.41797C287.211 9.01953 287.074 9.63281 286.941 10.2578C286.816 10.8828 286.695 11.5078 286.578 12.1328C286.469 12.7578 286.371 13.3633 286.285 13.9492C286.207 14.5352 286.145 15.0898 286.098 15.6133C286.051 16.1289 286.027 16.5938 286.027 17.0078C286.027 17.2344 285.984 17.4883 285.898 17.7695C285.812 18.0508 285.703 18.3164 285.57 18.5664C285.438 18.8086 285.289 19.0117 285.125 19.1758C284.969 19.3398 284.812 19.4219 284.656 19.4219C284.406 19.4219 284.195 19.4141 284.023 19.3984C283.859 19.3906 283.715 19.3594 283.59 19.3047C283.504 19.2656 283.41 19.1875 283.309 19.0703C283.207 18.9609 283.113 18.832 283.027 18.6836C282.941 18.5273 282.867 18.3672 282.805 18.2031C282.75 18.0312 282.723 17.875 282.723 17.7344C282.723 17.6953 282.73 17.6484 282.746 17.5938C282.762 17.5312 282.777 17.4727 282.793 17.418C282.91 17.1211 283.016 16.7891 283.109 16.4219C283.211 16.0547 283.305 15.668 283.391 15.2617C283.477 14.8555 283.562 14.4414 283.648 14.0195C283.734 13.5898 283.824 13.1641 283.918 12.7422C284.098 11.9297 284.273 11.1055 284.445 10.2695C284.617 9.43359 284.836 8.61719 285.102 7.82031C285.219 7.47656 285.324 7.11719 285.418 6.74219C285.512 6.36719 285.594 6.00391 285.664 5.65234C285.742 5.30078 285.805 4.98047 285.852 4.69141C285.906 4.39453 285.949 4.15234 285.98 3.96484C286.004 3.80859 286.031 3.61328 286.062 3.37891C286.102 3.14453 286.16 2.91797 286.238 2.69922C286.324 2.47266 286.449 2.28125 286.613 2.125C286.777 1.96094 287 1.87891 287.281 1.87891C287.414 1.87891 287.59 1.91797 287.809 1.99609C288.035 2.07422 288.262 2.17578 288.488 2.30078C288.723 2.42578 288.938 2.55859 289.133 2.69922C289.336 2.83984 289.473 2.97656 289.543 3.10938C289.582 3.20312 289.629 3.32422 289.684 3.47266C289.738 3.62109 289.789 3.78125 289.836 3.95312C289.891 4.11719 289.934 4.28125 289.965 4.44531C290.004 4.60938 290.023 4.75 290.023 4.86719C290.023 4.9375 290.059 5.12109 290.129 5.41797C290.199 5.70703 290.293 6.0625 290.41 6.48438C290.527 6.90625 290.664 7.375 290.82 7.89062C290.977 8.40625 291.145 8.92578 291.324 9.44922C291.504 9.96484 291.688 10.4688 291.875 10.9609C292.062 11.4453 292.246 11.8711 292.426 12.2383C292.582 12.0742 292.75 11.8984 292.93 11.7109C293.109 11.5156 293.293 11.3203 293.48 11.125C293.676 10.9219 293.867 10.7227 294.055 10.5273C294.242 10.3242 294.418 10.1367 294.582 9.96484C294.957 9.56641 295.367 9.125 295.812 8.64062C296.266 8.15625 296.715 7.66016 297.16 7.15234C297.605 6.63672 298.027 6.11719 298.426 5.59375C298.832 5.07031 299.18 4.57031 299.469 4.09375C299.641 3.71875 299.824 3.35938 300.02 3.01562C300.215 2.66406 300.414 2.35547 300.617 2.08984C300.828 1.81641 301.039 1.60156 301.25 1.44531C301.461 1.28125 301.672 1.19922 301.883 1.19922C301.984 1.19922 302.125 1.25 302.305 1.35156C302.492 1.45313 302.672 1.58594 302.844 1.75C303.023 1.91406 303.18 2.10156 303.312 2.3125C303.445 2.51562 303.512 2.72266 303.512 2.93359C303.512 3.01953 303.492 3.12109 303.453 3.23828V3.22656ZM324.371 7.91406C324.371 9.08594 324.164 10.2109 323.75 11.2891C323.344 12.3594 322.738 13.3633 321.934 14.3008C321.129 15.2305 320.129 16.0742 318.934 16.832C317.738 17.5898 316.355 18.2383 314.785 18.7773C314.645 18.8242 314.48 18.8711 314.293 18.918C314.105 18.957 313.922 18.9883 313.742 19.0117C313.562 19.043 313.395 19.0664 313.238 19.082C313.09 19.1055 312.98 19.1172 312.91 19.1172C312.199 19.1172 311.52 19.0586 310.871 18.9414C310.23 18.8242 309.637 18.6367 309.09 18.3789C308.543 18.1133 308.051 17.7695 307.613 17.3477C307.176 16.918 306.805 16.3945 306.5 15.7773C306.305 15.3789 306.172 15 306.102 14.6406C306.031 14.2812 305.996 13.9141 305.996 13.5391C305.996 13.0391 306.074 12.4766 306.23 11.8516C306.395 11.2188 306.625 10.5625 306.922 9.88281C307.219 9.19531 307.574 8.5 307.988 7.79688C308.41 7.08594 308.875 6.40234 309.383 5.74609C309.898 5.08203 310.453 4.46094 311.047 3.88281C311.641 3.29688 312.262 2.78906 312.91 2.35938C313.566 1.92188 314.238 1.57812 314.926 1.32812C315.621 1.07813 316.324 0.953125 317.035 0.953125C317.145 0.953125 317.277 0.992187 317.434 1.07031C317.59 1.14062 317.758 1.22656 317.938 1.32812C318.125 1.42188 318.312 1.51562 318.5 1.60938C318.688 1.70312 318.867 1.77344 319.039 1.82031C319.445 1.92969 319.859 2.10156 320.281 2.33594C320.703 2.57031 321.109 2.85156 321.5 3.17969C321.898 3.5 322.27 3.85547 322.613 4.24609C322.965 4.63672 323.27 5.04297 323.527 5.46484C323.785 5.87891 323.988 6.29688 324.137 6.71875C324.293 7.13281 324.371 7.53125 324.371 7.91406ZM321.816 8.71094C321.816 8.45312 321.797 8.16406 321.758 7.84375C321.719 7.52344 321.637 7.19531 321.512 6.85938C321.387 6.52344 321.207 6.1875 320.973 5.85156C320.746 5.51562 320.441 5.20312 320.059 4.91406C320.004 4.875 319.918 4.81641 319.801 4.73828C319.691 4.65234 319.574 4.57031 319.449 4.49219C319.332 4.41406 319.219 4.34766 319.109 4.29297C319 4.23047 318.922 4.19922 318.875 4.19922C318.828 4.19922 318.785 4.20703 318.746 4.22266C318.707 4.23828 318.652 4.25781 318.582 4.28125C318.512 4.29688 318.418 4.3125 318.301 4.32812C318.191 4.34375 318.043 4.35156 317.855 4.35156C317.715 4.35156 317.594 4.32812 317.492 4.28125C317.398 4.22656 317.309 4.17188 317.223 4.11719C317.168 4.07812 317.117 4.04688 317.07 4.02344C317.023 4 317 3.98438 317 3.97656C316.891 3.96875 316.789 3.96484 316.695 3.96484C316.602 3.95703 316.512 3.95312 316.426 3.95312C316.324 3.95312 316.223 3.95703 316.121 3.96484C316.027 3.97266 315.918 3.98828 315.793 4.01172C315.676 4.02734 315.539 4.05469 315.383 4.09375C315.234 4.125 315.055 4.16797 314.844 4.22266C314.602 4.28516 314.328 4.42578 314.023 4.64453C313.727 4.85547 313.41 5.12891 313.074 5.46484C312.746 5.79297 312.41 6.16797 312.066 6.58984C311.723 7.00391 311.391 7.44531 311.07 7.91406C310.75 8.375 310.445 8.85156 310.156 9.34375C309.875 9.83594 309.625 10.3203 309.406 10.7969C309.195 11.2656 309.027 11.7148 308.902 12.1445C308.785 12.5742 308.727 12.9648 308.727 13.3164C308.727 13.9258 308.867 14.4453 309.148 14.875C309.43 15.3047 309.785 15.6562 310.215 15.9297C310.652 16.2031 311.133 16.4023 311.656 16.5273C312.188 16.6523 312.699 16.7148 313.191 16.7148C313.676 16.7148 314.227 16.5977 314.844 16.3633C315.461 16.1211 316.09 15.7969 316.73 15.3906C317.371 14.9844 317.996 14.5156 318.605 13.9844C319.215 13.4453 319.758 12.8789 320.234 12.2852C320.711 11.6914 321.094 11.0898 321.383 10.4805C321.672 9.86328 321.816 9.27344 321.816 8.71094ZM339.23 4.375C339.23 4.48438 339.215 4.61719 339.184 4.77344C339.16 4.92969 339.121 5.09375 339.066 5.26562C339.012 5.42969 338.949 5.58984 338.879 5.74609C338.816 5.89453 338.742 6.01562 338.656 6.10938H338.668C338.418 6.40625 337.828 6.55469 336.898 6.55469C336.898 6.21875 336.883 5.92969 336.852 5.6875C336.828 5.4375 336.785 5.23828 336.723 5.08984C336.668 4.96484 336.57 4.85938 336.43 4.77344C336.289 4.6875 336.129 4.61719 335.949 4.5625C335.777 4.50781 335.602 4.46875 335.422 4.44531C335.242 4.41406 335.086 4.39844 334.953 4.39844C334.617 4.39844 334.289 4.40625 333.969 4.42188C333.648 4.4375 333.332 4.46875 333.02 4.51562C332.715 4.5625 332.402 4.62891 332.082 4.71484C331.77 4.80078 331.449 4.91016 331.121 5.04297C330.887 5.13672 330.637 5.25391 330.371 5.39453C330.113 5.53516 329.871 5.69531 329.645 5.875C329.418 6.04688 329.223 6.23828 329.059 6.44922C328.902 6.65234 328.805 6.87109 328.766 7.10547L328.777 7.08203C328.777 7.26953 328.84 7.48047 328.965 7.71484C329.09 7.94141 329.258 8.16797 329.469 8.39453C329.688 8.61328 329.938 8.81641 330.219 9.00391C330.5 9.18359 330.797 9.31641 331.109 9.40234C331.133 9.41016 331.199 9.43359 331.309 9.47266C331.418 9.51172 331.551 9.55859 331.707 9.61328C331.863 9.66016 332.027 9.71484 332.199 9.77734C332.379 9.83984 332.543 9.89844 332.691 9.95312C332.848 10 332.977 10.043 333.078 10.082C333.188 10.1133 333.25 10.1328 333.266 10.1406C335.078 10.6016 336.422 11.1562 337.297 11.8047C338.172 12.4531 338.609 13.25 338.609 14.1953C338.609 14.5 338.543 14.8047 338.41 15.1094C338.277 15.4062 338.109 15.6914 337.906 15.9648C337.703 16.2383 337.48 16.4922 337.238 16.7266C337.004 16.9531 336.781 17.1445 336.57 17.3008L336.582 17.2891C336.355 17.4688 336.098 17.6523 335.809 17.8398C335.527 18.0273 335.223 18.2109 334.895 18.3906C334.566 18.5703 334.227 18.7383 333.875 18.8945C333.523 19.0508 333.164 19.1875 332.797 19.3047C332.453 19.4141 332.09 19.5156 331.707 19.6094C331.332 19.7109 330.957 19.7969 330.582 19.8672C330.207 19.9375 329.844 19.9922 329.492 20.0312C329.148 20.0703 328.836 20.0898 328.555 20.0898C328.406 20.0898 328.223 20.0703 328.004 20.0312C327.793 20 327.566 19.9531 327.324 19.8906C327.09 19.8281 326.852 19.7539 326.609 19.668C326.375 19.582 326.164 19.4844 325.977 19.375C325.789 19.2656 325.637 19.1484 325.52 19.0234C325.402 18.8984 325.344 18.7656 325.344 18.625C325.344 18.5 325.367 18.3477 325.414 18.168C325.461 17.9883 325.527 17.8164 325.613 17.6523C325.707 17.4805 325.812 17.3359 325.93 17.2188C326.055 17.0938 326.188 17.0312 326.328 17.0312C326.523 17.0312 326.707 17.0547 326.879 17.1016C327.051 17.1484 327.242 17.2031 327.453 17.2656C327.672 17.3203 327.922 17.375 328.203 17.4297C328.492 17.4766 328.848 17.5 329.27 17.5C329.691 17.5 330.129 17.457 330.582 17.3711C331.043 17.2773 331.496 17.1562 331.941 17.0078C332.387 16.8516 332.812 16.6758 333.219 16.4805C333.625 16.2852 333.992 16.082 334.32 15.8711C334.461 15.7773 334.613 15.6719 334.777 15.5547C334.949 15.4297 335.105 15.2969 335.246 15.1562C335.395 15.0078 335.516 14.8555 335.609 14.6992C335.711 14.543 335.762 14.3828 335.762 14.2188C335.762 14.0312 335.621 13.8516 335.34 13.6797V13.6914C334.926 13.4414 334.516 13.25 334.109 13.1172C333.703 12.9844 333.348 12.875 333.043 12.7891C332.184 12.5703 331.137 12.2227 329.902 11.7461H329.914C329.398 11.543 328.898 11.2812 328.414 10.9609C327.93 10.6406 327.512 10.3047 327.16 9.95312C326.379 9.08594 325.988 8.08594 325.988 6.95312C325.988 6.50781 326.113 6.07422 326.363 5.65234C326.613 5.23047 326.953 4.83594 327.383 4.46875C327.812 4.09375 328.309 3.75 328.871 3.4375C329.441 3.125 330.047 2.85938 330.688 2.64062C331.328 2.41406 331.98 2.23828 332.645 2.11328C333.316 1.98828 333.965 1.92578 334.59 1.92578C334.785 1.92578 335.027 1.94141 335.316 1.97266C335.613 1.99609 335.914 2.03516 336.219 2.08984C336.531 2.13672 336.828 2.19922 337.109 2.27734C337.391 2.34766 337.613 2.42969 337.777 2.52344H337.766C338.219 2.76562 338.574 3.05469 338.832 3.39062C339.098 3.72656 339.23 4.05469 339.23 4.375ZM355.238 4.92578C355.23 5.05078 355.207 5.21875 355.168 5.42969C355.129 5.63281 355.082 5.85938 355.027 6.10938C354.973 6.35938 354.918 6.62109 354.863 6.89453C354.809 7.16016 354.754 7.41797 354.699 7.66797C354.645 7.91797 354.598 8.15234 354.559 8.37109C354.527 8.58203 354.504 8.75 354.488 8.875C354.449 9.32031 354.398 9.79688 354.336 10.3047C354.281 10.8125 354.223 11.3203 354.16 11.8281C354.105 12.3281 354.059 12.8086 354.02 13.2695C353.98 13.7305 353.961 14.1367 353.961 14.4883C353.961 14.6914 353.965 14.9062 353.973 15.1328C353.98 15.3594 353.996 15.5859 354.02 15.8125C354.051 16.0859 354.074 16.3789 354.09 16.6914C354.105 16.9961 354.113 17.2852 354.113 17.5586C354.113 17.8164 354.059 18.0469 353.949 18.25C353.84 18.4453 353.703 18.6094 353.539 18.7422C353.375 18.875 353.195 18.9727 353 19.0352C352.805 19.1055 352.621 19.1406 352.449 19.1406C351.949 19.0859 351.574 18.8086 351.324 18.3086C351.074 17.8086 350.949 17.0156 350.949 15.9297C350.949 15.5859 350.961 15.2266 350.984 14.8516C351.016 14.4688 351.055 14.0859 351.102 13.7031C351.148 13.3125 351.195 12.9375 351.242 12.5781C351.297 12.2109 351.348 11.875 351.395 11.5703C351.441 11.2578 351.48 10.9883 351.512 10.7617C351.551 10.5273 351.574 10.3555 351.582 10.2461C351.598 9.99609 351.613 9.75781 351.629 9.53125C351.645 9.29688 351.664 9.04688 351.688 8.78125C351.695 8.70312 351.715 8.55859 351.746 8.34766C351.785 8.12891 351.828 7.875 351.875 7.58594C351.93 7.29688 351.984 6.99219 352.039 6.67188C352.094 6.34375 352.145 6.03906 352.191 5.75781C352.246 5.46875 352.293 5.21875 352.332 5.00781C352.371 4.79688 352.395 4.65625 352.402 4.58594C352.434 4.39062 352.457 4.19922 352.473 4.01172C352.496 3.82422 352.523 3.64844 352.555 3.48438C352.586 3.32031 352.625 3.16797 352.672 3.02734C352.727 2.87891 352.793 2.75391 352.871 2.65234C352.941 2.55859 353.039 2.48438 353.164 2.42969C353.289 2.375 353.422 2.33203 353.562 2.30078C353.711 2.26172 353.855 2.23828 353.996 2.23047C354.145 2.21484 354.27 2.20703 354.371 2.20703C354.543 2.20703 354.688 2.23438 354.805 2.28906C354.922 2.34375 355.016 2.4375 355.086 2.57031C355.156 2.69531 355.207 2.86328 355.238 3.07422C355.27 3.27734 355.285 3.53125 355.285 3.83594C355.285 3.98438 355.277 4.15234 355.262 4.33984C355.246 4.51953 355.238 4.71094 355.238 4.91406V4.92578ZM373.848 8.46484C373.848 7.94922 373.746 7.51172 373.543 7.15234C373.348 6.78516 373.086 6.47656 372.758 6.22656C372.438 5.97656 372.07 5.78125 371.656 5.64062C371.242 5.5 370.82 5.39453 370.391 5.32422C369.867 5.23828 369.344 5.17578 368.82 5.13672C368.297 5.08984 367.766 5.06641 367.227 5.06641C367 5.06641 366.754 5.07812 366.488 5.10156C366.23 5.11719 365.961 5.14062 365.68 5.17188C365.398 5.19531 365.113 5.22266 364.824 5.25391C364.543 5.27734 364.266 5.29297 363.992 5.30078C363.859 5.97266 363.727 6.64453 363.594 7.31641C363.469 7.98047 363.352 8.60156 363.242 9.17969C363.133 9.75 363.039 10.2539 362.961 10.6914C362.883 11.1289 362.832 11.4492 362.809 11.6523C362.746 12.0977 362.684 12.5625 362.621 13.0469C362.566 13.5234 362.539 13.9609 362.539 14.3594C362.539 14.5547 362.547 14.7266 362.562 14.875C362.578 15.0234 362.605 15.1641 362.645 15.2969C363.363 15.1719 364.121 14.9766 364.918 14.7109C365.715 14.4375 366.602 14.1367 367.578 13.8086C368.094 13.6367 368.578 13.4609 369.031 13.2812C369.492 13.1016 369.906 12.9258 370.273 12.7539C370.648 12.5742 370.973 12.4023 371.246 12.2383C371.527 12.0664 371.75 11.9062 371.914 11.7578C371.969 11.7109 372.051 11.6211 372.16 11.4883C372.277 11.3555 372.406 11.1953 372.547 11.0078C372.695 10.8203 372.844 10.6172 372.992 10.3984C373.148 10.1719 373.289 9.94531 373.414 9.71875C373.539 9.48438 373.641 9.26172 373.719 9.05078C373.805 8.83203 373.848 8.63672 373.848 8.46484ZM376.707 8.46484C376.707 9.46484 376.316 10.457 375.535 11.4414C374.824 12.3398 373.887 13.1797 372.723 13.9609C372.207 14.3125 371.648 14.6523 371.047 14.9805C370.445 15.3008 369.848 15.5977 369.254 15.8711C368.652 16.1445 368.082 16.3828 367.543 16.5859C367.012 16.7891 366.516 16.9609 366.055 17.1016C365.734 17.2031 365.387 17.332 365.012 17.4883C364.637 17.6367 364.203 17.8398 363.711 18.0977C363.492 18.2148 363.266 18.3125 363.031 18.3906C362.797 18.4609 362.574 18.5195 362.363 18.5664C362.16 18.6133 361.977 18.6484 361.812 18.6719C361.648 18.6875 361.531 18.6953 361.461 18.6953C360.992 18.6953 360.59 18.5625 360.254 18.2969C359.918 18.0312 359.699 17.6797 359.598 17.2422C359.52 16.9141 359.461 16.6367 359.422 16.4102C359.391 16.1836 359.375 16.0117 359.375 15.8945C359.375 15.8477 359.383 15.7812 359.398 15.6953C359.414 15.6016 359.43 15.5078 359.445 15.4141C359.461 15.3203 359.477 15.2266 359.492 15.1328C359.508 15.0391 359.516 14.9648 359.516 14.9102C359.516 14.8242 359.52 14.7227 359.527 14.6055C359.543 14.4883 359.559 14.3672 359.574 14.2422C359.598 14.1172 359.617 13.9922 359.633 13.8672C359.656 13.7422 359.676 13.6289 359.691 13.5273C359.895 12.4805 360.07 11.418 360.219 10.3398C360.375 9.25391 360.574 8.14453 360.816 7.01172C360.84 6.90234 360.867 6.78125 360.898 6.64844C360.93 6.51562 360.961 6.38281 360.992 6.25C361.023 6.10938 361.051 5.98047 361.074 5.86328C361.098 5.73828 361.109 5.63672 361.109 5.55859C361.109 5.42578 361.078 5.33984 361.016 5.30078C360.961 5.25391 360.883 5.19531 360.781 5.125C360.672 5.03906 360.578 4.96484 360.5 4.90234C360.422 4.83203 360.355 4.76562 360.301 4.70312C360.254 4.63281 360.219 4.55859 360.195 4.48047C360.172 4.40234 360.16 4.30859 360.16 4.19922C360.16 4.02734 360.203 3.84375 360.289 3.64844C360.383 3.44531 360.504 3.26172 360.652 3.09766C360.809 2.92578 360.984 2.78516 361.18 2.67578C361.383 2.55859 361.594 2.5 361.812 2.5C361.977 2.5 362.191 2.51172 362.457 2.53516C362.723 2.55078 362.988 2.57422 363.254 2.60547C363.52 2.62891 363.758 2.65234 363.969 2.67578C364.188 2.69141 364.328 2.69922 364.391 2.69922C364.961 2.69922 365.602 2.67578 366.312 2.62891C367.031 2.58203 367.746 2.55859 368.457 2.55859C369.48 2.55859 370.438 2.66016 371.328 2.86328C372.219 3.05859 373.031 3.36719 373.766 3.78906C373.93 3.88281 374.109 3.99609 374.305 4.12891C374.5 4.26172 374.699 4.42578 374.902 4.62109C375.105 4.80859 375.305 5.03516 375.5 5.30078C375.703 5.56641 375.891 5.88672 376.062 6.26172C376.266 6.69922 376.422 7.10938 376.531 7.49219C376.648 7.86719 376.707 8.19141 376.707 8.46484ZM392.328 4.12891C391.781 4.13672 391.172 4.15625 390.5 4.1875C389.828 4.21875 389.141 4.26562 388.438 4.32812C387.734 4.38281 387.039 4.45703 386.352 4.55078C385.664 4.63672 385.023 4.74609 384.43 4.87891C384.352 4.89453 384.289 4.94531 384.242 5.03125C384.203 5.11719 384.172 5.21875 384.148 5.33594C384.133 5.45312 384.117 5.57812 384.102 5.71094C384.094 5.83594 384.082 5.94922 384.066 6.05078C384.02 6.32422 383.957 6.62109 383.879 6.94141C383.809 7.25391 383.734 7.57812 383.656 7.91406C383.586 8.25 383.516 8.58594 383.445 8.92188C383.375 9.25781 383.324 9.58594 383.293 9.90625C383.582 9.90625 383.922 9.89062 384.312 9.85938C384.711 9.82812 385.109 9.79297 385.508 9.75391C385.906 9.70703 386.277 9.66016 386.621 9.61328C386.973 9.55859 387.246 9.50781 387.441 9.46094C387.988 9.32812 388.484 9.22656 388.93 9.15625C389.383 9.08594 389.758 9.05078 390.055 9.05078C390.32 9.05078 390.566 9.07031 390.793 9.10938C391.02 9.14062 391.215 9.19922 391.379 9.28516C391.543 9.37109 391.672 9.48438 391.766 9.625C391.859 9.76562 391.906 9.94141 391.906 10.1523C391.906 10.5508 391.82 10.8477 391.648 11.043C391.477 11.2383 391.23 11.3867 390.91 11.4883C390.598 11.582 390.215 11.6523 389.762 11.6992C389.316 11.7461 388.812 11.8164 388.25 11.9102C387.953 11.957 387.582 12.0078 387.137 12.0625C386.691 12.1094 386.23 12.1641 385.754 12.2266C385.277 12.2812 384.82 12.3438 384.383 12.4141C383.945 12.4766 383.586 12.5508 383.305 12.6367H383.293C383.184 12.668 383.098 12.7305 383.035 12.8242C382.98 12.9102 382.93 13.0664 382.883 13.293C382.828 13.5508 382.773 13.8359 382.719 14.1484C382.664 14.4609 382.613 14.7656 382.566 15.0625C382.527 15.3594 382.492 15.6367 382.461 15.8945C382.438 16.1445 382.426 16.3398 382.426 16.4805C382.465 16.6836 382.535 16.8086 382.637 16.8555C382.746 16.8945 382.855 16.9141 382.965 16.9141C383.098 16.9141 383.34 16.8984 383.691 16.8672C384.051 16.8281 384.465 16.7812 384.934 16.7266C385.402 16.6641 385.898 16.5977 386.422 16.5273C386.945 16.457 387.441 16.3867 387.91 16.3164C388.387 16.2461 388.809 16.1836 389.176 16.1289C389.543 16.0742 389.801 16.0312 389.949 16C390.465 15.8906 390.914 15.8086 391.297 15.7539C391.688 15.6914 391.938 15.6602 392.047 15.6602C392.516 15.7227 392.879 15.875 393.137 16.1172C393.402 16.3516 393.535 16.6602 393.535 17.043C393.535 17.1992 393.508 17.3477 393.453 17.4883C393.406 17.6289 393.316 17.7539 393.184 17.8633C392.66 18.0898 392.117 18.25 391.555 18.3438C391 18.4297 390.461 18.4883 389.938 18.5195C389.586 18.543 389.188 18.5781 388.742 18.625C388.305 18.6641 387.859 18.7148 387.406 18.7773C386.953 18.832 386.516 18.8867 386.094 18.9414C385.68 18.9961 385.312 19.0469 384.992 19.0938C384.734 19.1484 384.445 19.1992 384.125 19.2461C383.812 19.3008 383.484 19.3477 383.141 19.3867C382.805 19.4336 382.465 19.4688 382.121 19.4922C381.785 19.5156 381.461 19.5273 381.148 19.5273C380.906 19.5273 380.676 19.5039 380.457 19.457C380.246 19.418 380.055 19.3359 379.883 19.2109C379.719 19.0938 379.582 18.9258 379.473 18.707C379.371 18.4883 379.305 18.207 379.273 17.8633L379.238 17.4766C379.238 17.3984 379.254 17.3047 379.285 17.1953C379.324 17.0859 379.371 16.9414 379.426 16.7617C379.488 16.582 379.555 16.3594 379.625 16.0938C379.695 15.8281 379.77 15.5078 379.848 15.1328C379.926 14.7344 380 14.3203 380.07 13.8906C380.141 13.4531 380.207 13.0156 380.27 12.5781C380.332 12.1406 380.391 11.7148 380.445 11.3008C380.508 10.8789 380.562 10.4844 380.609 10.1172C380.727 9.25781 380.824 8.54297 380.902 7.97266C380.988 7.39453 381.059 6.91406 381.113 6.53125C381.168 6.14062 381.207 5.81641 381.23 5.55859C381.254 5.30078 381.266 5.05469 381.266 4.82031C381.266 4.8125 381.238 4.78516 381.184 4.73828C381.137 4.68359 381.062 4.55469 380.961 4.35156C380.852 4.13281 380.785 3.96484 380.762 3.84766C380.738 3.72266 380.727 3.60547 380.727 3.49609C380.727 3.43359 380.727 3.37891 380.727 3.33203C380.734 3.28516 380.75 3.22656 380.773 3.15625C380.789 3.07031 380.844 2.98438 380.938 2.89844C381.031 2.8125 381.141 2.73438 381.266 2.66406C381.398 2.59375 381.539 2.53516 381.688 2.48828C381.844 2.44141 381.992 2.41797 382.133 2.41797C382.297 2.42578 382.426 2.43359 382.52 2.44141C382.613 2.44141 382.691 2.44531 382.754 2.45312C382.824 2.45312 382.891 2.45703 382.953 2.46484C383.023 2.46484 383.121 2.47266 383.246 2.48828C383.465 2.48828 383.816 2.46484 384.301 2.41797C384.793 2.37109 385.34 2.3125 385.941 2.24219C386.543 2.17188 387.164 2.09766 387.805 2.01953C388.445 1.93359 389.031 1.85547 389.562 1.78516C390.102 1.71484 390.543 1.66016 390.887 1.62109C391.238 1.57422 391.422 1.55078 391.438 1.55078C391.477 1.54297 391.531 1.53906 391.602 1.53906C391.672 1.53906 391.738 1.53906 391.801 1.53906C392.246 1.53906 392.598 1.58203 392.855 1.66797C393.113 1.74609 393.305 1.85156 393.43 1.98438C393.555 2.11719 393.633 2.26562 393.664 2.42969C393.695 2.58594 393.711 2.74219 393.711 2.89844C393.711 3 393.672 3.11719 393.594 3.25C393.516 3.38281 393.418 3.50781 393.301 3.625C393.191 3.74219 393.07 3.84766 392.938 3.94141C392.812 4.02734 392.699 4.08203 392.598 4.10547L392.328 4.12891ZM403.859 12.2969C404.117 12.2578 404.395 12.2188 404.691 12.1797C404.988 12.1406 405.277 12.0977 405.559 12.0508C405.84 12.0039 406.102 11.957 406.344 11.9102C406.586 11.8555 406.789 11.8008 406.953 11.7461C406.922 11.6055 406.887 11.4531 406.848 11.2891C406.809 11.1172 406.77 10.9492 406.73 10.7852C406.691 10.6133 406.652 10.4531 406.613 10.3047C406.582 10.1484 406.555 10.0156 406.531 9.90625C406.391 9.17188 406.258 8.37109 406.133 7.50391C406.008 6.63672 405.914 5.78125 405.852 4.9375C405.703 5.17188 405.547 5.43359 405.383 5.72266C405.227 6.01172 405.066 6.30469 404.902 6.60156C404.738 6.89062 404.574 7.17969 404.41 7.46875C404.246 7.75 404.09 8.00391 403.941 8.23047C403.73 8.55078 403.504 8.89062 403.262 9.25C403.027 9.60156 402.789 9.96484 402.547 10.3398C402.312 10.707 402.078 11.0742 401.844 11.4414C401.617 11.8086 401.406 12.168 401.211 12.5195C401.641 12.4961 402.078 12.4648 402.523 12.4258C402.969 12.3867 403.418 12.3438 403.871 12.2969H403.859ZM413.75 17.8047C413.75 17.9844 413.715 18.1641 413.645 18.3438C413.574 18.5156 413.473 18.6719 413.34 18.8125C413.215 18.9531 413.066 19.0664 412.895 19.1523C412.723 19.2383 412.535 19.2812 412.332 19.2812C412.035 19.2812 411.738 19.1836 411.441 18.9883C411.145 18.793 410.852 18.5391 410.562 18.2266C410.273 17.9062 409.992 17.5508 409.719 17.1602C409.453 16.7695 409.199 16.3789 408.957 15.9883C408.715 15.5977 408.492 15.2305 408.289 14.8867C408.086 14.5352 407.91 14.2461 407.762 14.0195C407.512 14.0352 407.156 14.0703 406.695 14.125C406.234 14.1797 405.727 14.2461 405.172 14.3242C404.617 14.3945 404.039 14.4727 403.438 14.5586C402.844 14.6367 402.281 14.7188 401.75 14.8047C401.219 14.8828 400.746 14.957 400.332 15.0273C399.926 15.0977 399.637 15.1562 399.465 15.2031C399.129 15.6328 398.785 16.0859 398.434 16.5625C398.082 17.0312 397.719 17.5195 397.344 18.0273C397.25 18.168 397.145 18.3125 397.027 18.4609C396.91 18.6094 396.777 18.7461 396.629 18.8711C396.48 18.9883 396.312 19.0859 396.125 19.1641C395.945 19.2422 395.742 19.2812 395.516 19.2812C395.383 19.2812 395.23 19.2305 395.059 19.1289C394.895 19.0352 394.738 18.918 394.59 18.7773C394.449 18.6367 394.328 18.4883 394.227 18.332C394.125 18.168 394.074 18.0234 394.074 17.8984C394.074 17.8125 394.141 17.6484 394.273 17.4062C394.406 17.1562 394.574 16.8906 394.777 16.6094C394.793 16.5859 394.879 16.4766 395.035 16.2812C395.191 16.0781 395.383 15.8281 395.609 15.5312C395.844 15.2344 396.094 14.9141 396.359 14.5703C396.625 14.2266 396.875 13.9062 397.109 13.6094C397.344 13.3125 397.539 13.0625 397.695 12.8594C397.859 12.6484 397.953 12.5312 397.977 12.5078C398.656 11.6484 399.316 10.7461 399.957 9.80078C400.598 8.84766 401.219 7.90625 401.82 6.97656C401.93 6.80469 402.031 6.64844 402.125 6.50781C402.219 6.36719 402.316 6.22656 402.418 6.08594C402.52 5.94531 402.625 5.79688 402.734 5.64062C402.852 5.48438 402.984 5.30469 403.133 5.10156C403.406 4.73438 403.672 4.35547 403.93 3.96484C404.188 3.57422 404.418 3.15625 404.621 2.71094C404.801 2.3125 405.047 2.01172 405.359 1.80859C405.672 1.59766 406.074 1.49219 406.566 1.49219C406.801 1.49219 407 1.58984 407.164 1.78516C407.328 1.98047 407.473 2.24219 407.598 2.57031C407.723 2.89844 407.832 3.28125 407.926 3.71875C408.02 4.14844 408.109 4.60547 408.195 5.08984C408.281 5.56641 408.367 6.05469 408.453 6.55469C408.547 7.05469 408.652 7.53516 408.77 7.99609C408.902 8.51953 409.047 9.05078 409.203 9.58984C409.367 10.1289 409.547 10.6328 409.742 11.1016C410.094 11.0391 410.387 10.9844 410.621 10.9375C410.855 10.8828 411.07 10.8555 411.266 10.8555C411.586 10.8555 411.84 10.8633 412.027 10.8789C412.215 10.8945 412.359 10.9336 412.461 10.9961C412.57 11.0508 412.641 11.1367 412.672 11.2539C412.703 11.3633 412.719 11.5117 412.719 11.6992C412.719 11.9102 412.656 12.0977 412.531 12.2617C412.414 12.4258 412.254 12.5703 412.051 12.6953C411.855 12.8203 411.633 12.9258 411.383 13.0117C411.133 13.0977 410.879 13.168 410.621 13.2227C410.691 13.3633 410.75 13.4883 410.797 13.5977C410.852 13.6992 410.902 13.8008 410.949 13.9023C410.996 13.9961 411.043 14.0938 411.09 14.1953C411.137 14.2969 411.195 14.4102 411.266 14.5352C411.422 14.8164 411.586 15.0938 411.758 15.3672C411.938 15.6328 412.117 15.8672 412.297 16.0703C412.344 16.1172 412.41 16.1836 412.496 16.2695C412.59 16.3555 412.688 16.4531 412.789 16.5625C412.898 16.6719 413.008 16.7891 413.117 16.9141C413.234 17.0312 413.34 17.1484 413.434 17.2656C413.527 17.375 413.602 17.4805 413.656 17.582C413.719 17.6758 413.75 17.75 413.75 17.8047ZM429.137 4.375C429.137 4.48438 429.121 4.61719 429.09 4.77344C429.066 4.92969 429.027 5.09375 428.973 5.26562C428.918 5.42969 428.855 5.58984 428.785 5.74609C428.723 5.89453 428.648 6.01562 428.562 6.10938H428.574C428.324 6.40625 427.734 6.55469 426.805 6.55469C426.805 6.21875 426.789 5.92969 426.758 5.6875C426.734 5.4375 426.691 5.23828 426.629 5.08984C426.574 4.96484 426.477 4.85938 426.336 4.77344C426.195 4.6875 426.035 4.61719 425.855 4.5625C425.684 4.50781 425.508 4.46875 425.328 4.44531C425.148 4.41406 424.992 4.39844 424.859 4.39844C424.523 4.39844 424.195 4.40625 423.875 4.42188C423.555 4.4375 423.238 4.46875 422.926 4.51562C422.621 4.5625 422.309 4.62891 421.988 4.71484C421.676 4.80078 421.355 4.91016 421.027 5.04297C420.793 5.13672 420.543 5.25391 420.277 5.39453C420.02 5.53516 419.777 5.69531 419.551 5.875C419.324 6.04688 419.129 6.23828 418.965 6.44922C418.809 6.65234 418.711 6.87109 418.672 7.10547L418.684 7.08203C418.684 7.26953 418.746 7.48047 418.871 7.71484C418.996 7.94141 419.164 8.16797 419.375 8.39453C419.594 8.61328 419.844 8.81641 420.125 9.00391C420.406 9.18359 420.703 9.31641 421.016 9.40234C421.039 9.41016 421.105 9.43359 421.215 9.47266C421.324 9.51172 421.457 9.55859 421.613 9.61328C421.77 9.66016 421.934 9.71484 422.105 9.77734C422.285 9.83984 422.449 9.89844 422.598 9.95312C422.754 10 422.883 10.043 422.984 10.082C423.094 10.1133 423.156 10.1328 423.172 10.1406C424.984 10.6016 426.328 11.1562 427.203 11.8047C428.078 12.4531 428.516 13.25 428.516 14.1953C428.516 14.5 428.449 14.8047 428.316 15.1094C428.184 15.4062 428.016 15.6914 427.812 15.9648C427.609 16.2383 427.387 16.4922 427.145 16.7266C426.91 16.9531 426.688 17.1445 426.477 17.3008L426.488 17.2891C426.262 17.4688 426.004 17.6523 425.715 17.8398C425.434 18.0273 425.129 18.2109 424.801 18.3906C424.473 18.5703 424.133 18.7383 423.781 18.8945C423.43 19.0508 423.07 19.1875 422.703 19.3047C422.359 19.4141 421.996 19.5156 421.613 19.6094C421.238 19.7109 420.863 19.7969 420.488 19.8672C420.113 19.9375 419.75 19.9922 419.398 20.0312C419.055 20.0703 418.742 20.0898 418.461 20.0898C418.312 20.0898 418.129 20.0703 417.91 20.0312C417.699 20 417.473 19.9531 417.23 19.8906C416.996 19.8281 416.758 19.7539 416.516 19.668C416.281 19.582 416.07 19.4844 415.883 19.375C415.695 19.2656 415.543 19.1484 415.426 19.0234C415.309 18.8984 415.25 18.7656 415.25 18.625C415.25 18.5 415.273 18.3477 415.32 18.168C415.367 17.9883 415.434 17.8164 415.52 17.6523C415.613 17.4805 415.719 17.3359 415.836 17.2188C415.961 17.0938 416.094 17.0312 416.234 17.0312C416.43 17.0312 416.613 17.0547 416.785 17.1016C416.957 17.1484 417.148 17.2031 417.359 17.2656C417.578 17.3203 417.828 17.375 418.109 17.4297C418.398 17.4766 418.754 17.5 419.176 17.5C419.598 17.5 420.035 17.457 420.488 17.3711C420.949 17.2773 421.402 17.1562 421.848 17.0078C422.293 16.8516 422.719 16.6758 423.125 16.4805C423.531 16.2852 423.898 16.082 424.227 15.8711C424.367 15.7773 424.52 15.6719 424.684 15.5547C424.855 15.4297 425.012 15.2969 425.152 15.1562C425.301 15.0078 425.422 14.8555 425.516 14.6992C425.617 14.543 425.668 14.3828 425.668 14.2188C425.668 14.0312 425.527 13.8516 425.246 13.6797V13.6914C424.832 13.4414 424.422 13.25 424.016 13.1172C423.609 12.9844 423.254 12.875 422.949 12.7891C422.09 12.5703 421.043 12.2227 419.809 11.7461H419.82C419.305 11.543 418.805 11.2812 418.32 10.9609C417.836 10.6406 417.418 10.3047 417.066 9.95312C416.285 9.08594 415.895 8.08594 415.895 6.95312C415.895 6.50781 416.02 6.07422 416.27 5.65234C416.52 5.23047 416.859 4.83594 417.289 4.46875C417.719 4.09375 418.215 3.75 418.777 3.4375C419.348 3.125 419.953 2.85938 420.594 2.64062C421.234 2.41406 421.887 2.23828 422.551 2.11328C423.223 1.98828 423.871 1.92578 424.496 1.92578C424.691 1.92578 424.934 1.94141 425.223 1.97266C425.52 1.99609 425.82 2.03516 426.125 2.08984C426.438 2.13672 426.734 2.19922 427.016 2.27734C427.297 2.34766 427.52 2.42969 427.684 2.52344H427.672C428.125 2.76562 428.48 3.05469 428.738 3.39062C429.004 3.72656 429.137 4.05469 429.137 4.375Z" fill="white"/>
</svg>
